<?xml version="1.0" encoding="utf-8"?>
<!-- Generator: Adobe Illustrator 21.0.0, SVG Export Plug-In . SVG Version: 6.00 Build 0)  -->
<svg version="1.1" id="Warstwa_1" xmlns="http://www.w3.org/2000/svg" xmlns:xlink="http://www.w3.org/1999/xlink" x="0px" y="0px"
	 viewBox="0 0 1688.9 817.8" style="enable-background:new 0 0 1688.9 817.8;" xml:space="preserve">
<style type="text/css">
	.st0{fill:#A2D122;}
</style>
<g id="Warstwa_2">
</g>
<g id="Warstwa_1_1_">
	<g>
		<g>
			<path class="st0" d="M508.9,599.6v101.1L572,591.4C551.9,596.8,530.7,599.6,508.9,599.6z"/>
			<path class="st0" d="M722.7,229.3L722.7,229.3L554.4,520.7c43.8-11.9,80.9-40.5,103.7-78.5l152.2-263.4H683.9
				C699,193.8,712,210.8,722.7,229.3z"/>
			<path class="st0" d="M508.9,178.8v50.6h122.6C600.1,198.1,556.7,178.8,508.9,178.8z"/>
			<path class="st0" d="M679.8,281.4l23.6-40.9l0.3-0.2l6.2-10.7C668.5,162,594,117,508.9,117v50.6
				C585.9,167.6,651.8,214.6,679.8,281.4z"/>
			<path class="st0" d="M744.6,352.7c0-11.4-0.8-22.8-2.4-33.8L671,442.4c-31.6,56.9-92.3,95.5-162,95.5v39.4l6.4,11.1
				C642.6,585,744.6,480.8,744.6,352.7z"/>
		</g>
		<path class="st0" d="M178.4,102.7v506.6c4.1,46.3,13.3,82.9,27.6,109.7c14.3-26.8,23.6-63.4,27.6-109.7V102.7
			C215.6,93.4,197.2,93.2,178.4,102.7z M228.2,550.8h-44.4v-21.4h44.4V550.8z"/>
		<path class="st0" d="M275.1,53.3v590.1c5.1,53.9,16.5,96.6,34.3,127.8c17.8-31.2,29.3-73.8,34.3-127.8V53.3
			C321.5,42.5,298.6,42.2,275.1,53.3z M337.1,575.3h-55.2v-25h55.2V575.3z"/>
		<path class="st0" d="M385.4,9.3v664.6c5.8,60.7,19.1,108.7,39.6,143.9c20.6-35.2,33.8-83.1,39.6-143.9V9.3
			C438.9-3,412.5-3.2,385.4,9.3z M457,597.1h-63.8V569H457V597.1z"/>
	</g>
</g>
<g>
	<path class="st0" d="M873.6,164.3c1.4,0,2.8,0.1,4.4,0.3c1.6,0.2,3.1,0.4,4.6,0.7c1.5,0.3,2.8,0.6,4.1,0.9c1.2,0.3,2.2,0.6,2.9,1
		v14.2h-1.1c0-4.1-1.4-7.3-4.2-9.6c-2.8-2.3-6.2-3.5-10.2-3.5c-4.7,0-8.5,1.5-11.3,4.4c-2.9,2.9-4.3,6.4-4.3,10.3
		c0,1.6,0.4,3.5,1.1,5.7c0.7,2.2,2.1,4.2,4,6.1l25.1,23.2c2.6,2.4,4.3,4.9,5.1,7.7c0.8,2.7,1.3,5.4,1.3,7.9c0,7.1-2.1,12.8-6.4,17.2
		c-4.3,4.4-10.1,6.6-17.4,6.6c-2,0-4.4-0.2-7.2-0.6c-2.8-0.4-5.4-1.2-8-2.2c-2.6-1.1-4.7-2.4-6.4-4.1c-0.3-1.4-0.4-3.1-0.4-5.1
		s0.2-4.2,0.5-6.4c0.3-2.3,0.8-4.3,1.4-6.2h1.1c-0.4,4.3,0.1,8.1,1.7,11.4c1.5,3.2,3.8,5.7,6.7,7.3c2.9,1.7,6.3,2.4,10,2.2
		c4.7-0.3,8.7-1.9,12.1-4.9c3.4-3,5-7.1,5-12.2c0-2.5-0.4-4.7-1.3-6.7c-0.8-2-2.1-3.7-3.7-5.2L858,201.6c-2.6-2.4-4.3-5-5.4-7.8
		c-1-2.8-1.5-5.5-1.5-8c0-3.6,0.8-7,2.6-10.3c1.7-3.3,4.2-6,7.6-8.1C864.6,165.3,868.7,164.3,873.6,164.3z M889.5,165.5v2.7h-9.7
		v-2.7H889.5z"/>
	<path class="st0" d="M968.5,177v1.1l-51,77.2h-8.9v-1.1l47.6-71.7h-45.7v-3.8h43.6c1.8,0,3.7-0.1,5.7-0.3c2-0.2,3.9-0.4,5.5-0.6
		C966.9,177.5,968,177.3,968.5,177z M910.5,176.6c0.8,0.3,2,0.5,3.6,0.8c1.6,0.3,3.4,0.6,5.3,0.8c1.9,0.2,3.7,0.4,5.4,0.4l-14.3,1.3
		V176.6z M910.5,182.2h7.8v0.3c-1.9,0.1-3.4,0.7-4.6,2c-1.2,1.2-1.8,2.8-1.8,4.7v1.9h-1.4V182.2z M969.6,251.5l-0.9,3.8h-51.9v-3.8
		H969.6z M976.5,237.1l-6.9,18.2h-19.1l4.3-3.8c4.2-0.1,7.5-0.7,10-1.9c2.5-1.2,4.6-2.9,6.2-5c1.6-2.2,3-4.7,4.2-7.5H976.5z"/>
	<path class="st0" d="M996.2,186.8h-0.3c-0.1-2-0.8-3.6-2.2-4.8s-3.1-1.9-5.2-1.9h-1.8v-1.3h11.1L996.2,186.8z M996.2,247.2l1.7,8.2
		h-11.1v-1.3h1.8c2,0,3.8-0.7,5.2-2c1.4-1.4,2.1-3,2.2-4.8H996.2z M1004.1,178.8v76.5h-8.2v-76.5H1004.1z M1003.7,247.2h0.3
		c0.1,1.9,0.8,3.5,2.2,4.8c1.4,1.4,3.1,2,5.2,2c0.1,0,0.7,0,1.8,0v1.3H1002L1003.7,247.2z M1016.6,178.8c5.9,0,11.1,0.9,15.4,2.6
		c4.3,1.7,7.7,4.3,10.1,7.5c2.4,3.3,3.6,7.2,3.6,11.7c0,4.8-1.1,9-3.3,12.4c-2.2,3.4-5,6.1-8.6,7.9c-3.6,1.8-7.5,2.7-11.9,2.7
		c-4.3,0-8.7-1.1-13-3.3v-1.3c2.8,0.5,5.3,0.7,7.5,0.7c2.2,0,4.5-0.4,7-1.1c2.5-0.7,4.8-2.1,7-4c2.2-2,3.9-4.8,5.2-8.4
		c0.3-0.9,0.6-2,0.7-3.3c0.1-1.3,0.2-2.5,0.2-3.6c0-5.2-1.8-9.3-5.4-12.2c-3.6-3-8.5-4.5-14.8-4.5h-12.5c-0.4-1.3-0.9-2.6-1.4-3.8
		H1016.6z"/>
	<path class="st0" d="M1068.1,187h-0.4c-0.1-2-1-3.6-2.6-4.9c-1.7-1.3-3.7-2-6.1-2c-0.1,0-0.7,0-1.8,0v-1.3h10.8V187z M1068.1,247.2
		v8.2h-10.8v-1.3h1.8c2.4,0,4.4-0.7,6.1-2c1.7-1.4,2.5-3,2.6-4.8H1068.1z M1075.7,178.8v76.5h-8v-76.5H1075.7z M1075.4,187v-8.2
		h10.8l-0.1,1.3h-1.7c-2.4,0-4.4,0.7-6.1,2c-1.7,1.3-2.5,3-2.6,4.9H1075.4z M1075.4,247.2h0.4c0.1,1.9,1,3.5,2.6,4.8
		c1.7,1.4,3.7,2,6.1,2h1.7l0.1,1.3h-10.8V247.2z"/>
	<path class="st0" d="M1109.5,186.8h-0.3c-0.1-2-0.8-3.6-2.2-4.8c-1.4-1.3-3.1-1.9-5.2-1.9h-1.8v-1.3h11.1L1109.5,186.8z
		 M1109.5,247.2l1.7,8.2h-11.1v-1.3h1.8c2.1,0,3.9-0.7,5.2-2c1.4-1.4,2.1-3,2.2-4.8H1109.5z M1117.5,178.8v76.5h-8.2v-76.5H1117.5z
		 M1151.6,178.8v4h-34.4v-4H1151.6z M1145.8,215.2v3.8h-28.6v-3.8H1145.8z M1151.8,251.4l-0.3,4h-34.3v-4H1151.8z M1158.9,237.1
		l-7,18.2h-19.4l4.3-4c4.3,0,7.7-0.6,10.3-1.8c2.6-1.2,4.7-2.9,6.3-5.1c1.6-2.2,3-4.6,4.2-7.3H1158.9z M1151.6,176.8v3.3l-14.5-1.3
		c2.6,0,5.4-0.2,8.4-0.7C1148.5,177.6,1150.5,177.2,1151.6,176.8z M1145.8,208.1v7.3h-6.6v-0.3c1.8,0,3.1-0.5,4-1.6
		c0.8-1.1,1.3-2.3,1.3-3.8v-1.7H1145.8z M1145.8,218.7v7.3h-1.4v-1.7c0-1.4-0.4-2.7-1.3-3.8c-0.9-1.1-2.2-1.6-4-1.6v-0.3H1145.8z
		 M1151.6,182.4v8.8h-1.4v-1.9c0-1.8-0.6-3.3-1.7-4.6c-1.1-1.3-2.7-1.9-4.7-1.9v-0.4H1151.6z"/>
	<path class="st0" d="M1182.9,187.6l-9.7,0.1c-0.9-2.2-2.1-4-3.8-5.5c-1.7-1.4-3.9-2.2-6.6-2.2h-1v-1.3h26.3v1.3h-1
		c-1.4,0-2.6,0.6-3.7,1.7S1182,184.9,1182.9,187.6z M1170,179.6h10.2l20.7,62.9l-1.1,14.4L1170,179.6z M1222.4,176.8l1,10.3
		l-19.8,55.6c-0.9,3-1.5,5.5-2,7.7c-0.5,2.2-0.7,4.3-0.8,6.4h-1.1l-2.4-11.4l23.8-68.7H1222.4z M1222.4,176.9l24.5,62.4l-2.9,17.6
		l-25.9-66.2L1222.4,176.9z M1269.4,179.6l-21.2,63.1c-0.9,3.1-1.6,5.7-2.1,7.8c-0.5,2.2-0.7,4.3-0.8,6.3h-1.3l-1.5-12.6l19.6-64.7
		H1269.4z M1259.5,187.7c0.9-2.7,0.9-4.7-0.2-5.9c-1.1-1.2-2.3-1.8-3.6-1.8h-1v-1.3h23.3v1.3h-0.9c-2.6,0-4.8,0.7-6.6,2.2
		c-1.8,1.4-3.1,3.3-3.8,5.5H1259.5z"/>
	<path class="st0" d="M1291.4,247.4v7.9h-9.6v-1.3h2.2c2,0,3.6-0.6,5-1.9c1.4-1.3,2-2.8,2-4.7H1291.4z M1291.2,176.9l5.5,7.1
		l0.1,71.3h-5.7v-62.5c0-4.3-0.4-9.6-1.1-15.9H1291.2z M1291.2,176.9l70.7,66.6l1.3,13.6l-70.7-67L1291.2,176.9z M1296.8,247.4
		c0,1.9,0.7,3.4,2.1,4.7s3,1.9,4.9,1.9h2.2v1.3h-9.6v-7.9H1296.8z M1357.5,186.7c-0.1-1.9-0.8-3.4-2.2-4.7c-1.4-1.3-3-1.9-5-1.9
		h-2.2v-1.3h9.6v7.9H1357.5z M1363.1,178.8v62c0,2.7,0.1,5.3,0.3,7.8c0.2,2.5,0.5,5.3,0.9,8.5h-1.1l-5.6-6.8v-71.6H1363.1z
		 M1362.7,186.7v-7.9h9.6v1.3h-2.2c-1.9,0-3.5,0.6-4.9,1.9c-1.4,1.3-2.1,2.9-2.1,4.7H1362.7z"/>
	<path class="st0" d="M1394.6,187h-0.4c-0.1-2-1-3.6-2.6-4.9c-1.7-1.3-3.7-2-6.1-2c-0.1,0-0.7,0-1.8,0v-1.3h10.8V187z M1394.6,247.2
		v8.2h-10.8v-1.3h1.8c2.4,0,4.4-0.7,6.1-2c1.7-1.4,2.5-3,2.6-4.8H1394.6z M1402.3,178.8v76.5h-8v-76.5H1402.3z M1401.9,187v-8.2
		h10.8l-0.1,1.3h-1.7c-2.4,0-4.4,0.7-6.1,2c-1.7,1.3-2.5,3-2.6,4.9H1401.9z M1401.9,247.2h0.4c0.1,1.9,1,3.5,2.6,4.8
		c1.7,1.4,3.7,2,6.1,2h1.7l0.1,1.3h-10.8V247.2z"/>
	<path class="st0" d="M1435.9,187h-0.3c-0.1-2-0.9-3.6-2.3-4.9c-1.4-1.3-3.2-2-5.2-2h-1.5v-1.3h9.3V187z M1435.9,247.2v8.2h-9.3
		v-1.3h1.5c2,0,3.8-0.7,5.2-2c1.4-1.4,2.2-3,2.3-4.8H1435.9z M1443.8,178.8v76.5h-8.2v-76.5H1443.8z M1443.4,187v-8.2h9.3v1.3
		c-0.9,0-1.4,0-1.5,0c-2,0-3.8,0.7-5.2,2c-1.4,1.3-2.2,3-2.2,4.9H1443.4z M1443.4,247.2h0.4c0,1.9,0.7,3.5,2.2,4.8
		c1.4,1.4,3.2,2,5.4,2h1.4v1.3h-9.3V247.2z M1489.5,179.7l-35.2,37.6h-6l32-37.6H1489.5z M1455.4,212.6l33.3,36.2
		c1.4,1.7,3,3,4.6,3.8c1.6,0.9,3.8,1.3,6.5,1.4v1.3h-4.7c-1,0-2.3-0.1-3.8-0.2c-1.5-0.1-3.1-0.4-4.8-0.9c-1.7-0.5-3.5-1.2-5.2-2.2
		c-1.7-1-3.4-2.3-4.9-4c-2.6-3-5-5.6-7.1-8c-2.1-2.3-4.4-4.8-6.8-7.4c-2.4-2.6-4.7-5.1-6.8-7.4c-2.1-2.3-4.6-5-7.3-8L1455.4,212.6z
		 M1497.8,178.8v1.3h-0.5c-2.6,0-5.1,0.4-7.3,1.3c-2.3,0.9-4.1,2.1-5.5,3.8l-8.7-0.1c0.9-1.2,1.1-2.3,0.4-3.4
		c-0.6-1.1-1.7-1.6-3.3-1.6h-1.1v-1.3h25.5H1497.8z"/>
	<path class="st0" d="M873.6,317.3c1.4,0,2.8,0.1,4.4,0.3c1.6,0.2,3.1,0.4,4.6,0.7c1.5,0.3,2.8,0.6,4.1,0.9c1.2,0.3,2.2,0.6,2.9,1
		v14.2h-1.1c0-4.1-1.4-7.3-4.2-9.6c-2.8-2.3-6.2-3.5-10.2-3.5c-4.7,0-8.5,1.5-11.3,4.4c-2.9,2.9-4.3,6.4-4.3,10.3
		c0,1.6,0.4,3.5,1.1,5.7c0.7,2.2,2.1,4.2,4,6.1l25.1,23.2c2.6,2.4,4.3,4.9,5.1,7.7c0.8,2.7,1.3,5.4,1.3,7.9c0,7.1-2.1,12.8-6.4,17.2
		c-4.3,4.4-10.1,6.6-17.4,6.6c-2,0-4.4-0.2-7.2-0.6c-2.8-0.4-5.4-1.2-8-2.2c-2.6-1.1-4.7-2.4-6.4-4.1c-0.3-1.4-0.4-3.1-0.4-5.1
		s0.2-4.2,0.5-6.4c0.3-2.3,0.8-4.3,1.4-6.2h1.1c-0.4,4.3,0.1,8.1,1.7,11.4c1.5,3.2,3.8,5.7,6.7,7.3s6.3,2.4,10,2.2
		c4.7-0.3,8.7-1.9,12.1-4.9c3.4-3,5-7.1,5-12.2c0-2.5-0.4-4.7-1.3-6.7c-0.8-2-2.1-3.7-3.7-5.2L858,354.7c-2.6-2.4-4.3-5-5.4-7.8
		c-1-2.8-1.5-5.5-1.5-8c0-3.6,0.8-7,2.6-10.3c1.7-3.3,4.2-6,7.6-8.1C864.6,318.4,868.7,317.3,873.6,317.3z M889.5,318.6v2.7h-9.7
		v-2.7H889.5z"/>
	<path class="st0" d="M968.5,330.1v1.1l-51,77.2h-8.9v-1.1l47.6-71.7h-45.7v-3.8h43.6c1.8,0,3.7-0.1,5.7-0.3c2-0.2,3.9-0.4,5.5-0.6
		C966.9,330.6,968,330.3,968.5,330.1z M910.5,329.7c0.8,0.3,2,0.5,3.6,0.8c1.6,0.3,3.4,0.6,5.3,0.8c1.9,0.2,3.7,0.4,5.4,0.4
		l-14.3,1.3V329.7z M910.5,335.3h7.8v0.3c-1.9,0.1-3.4,0.7-4.6,2c-1.2,1.2-1.8,2.8-1.8,4.7v1.9h-1.4V335.3z M969.6,404.6l-0.9,3.8
		h-51.9v-3.8H969.6z M976.5,390.1l-6.9,18.2h-19.1l4.3-3.8c4.2-0.1,7.5-0.7,10-1.9c2.5-1.2,4.6-2.9,6.2-5c1.6-2.2,3-4.7,4.2-7.5
		H976.5z"/>
	<path class="st0" d="M1003.2,339.9l-10.8-0.4c-1.4-2-3-3.5-5-4.7c-2-1.1-4.2-1.7-6.7-1.7h-1.5v-1.3h29.6v1.3h-1.5
		c-1.9,0-3.2,0.7-4,2.2C1002.3,336.9,1002.3,338.4,1003.2,339.9z M998.7,332l23.6,42l-5.2,4.5L987.6,332H998.7z M1016.3,400.2v8.2
		h-9.3v-1.3c0.1,0,0.6,0,1.5,0c2,0,3.8-0.7,5.2-2c1.4-1.4,2.1-3,2.2-4.8H1016.3z M1024.2,375.5v32.9h-8.3v-32.9H1024.2z M1045.6,332
		h8l-30.4,46.2l-4.7-1.4L1045.6,332z M1023.8,400.2h0.4c0.1,1.9,0.8,3.5,2.2,4.8c1.4,1.4,3.1,2,5.2,2h1.5v1.3h-9.3V400.2z
		 M1040.8,340c0.9-1.7,1-3.3,0.1-4.7c-0.8-1.4-2.2-2.2-4.1-2.2h-1.5v-1.3h26.7v1.3h-1.5c-2.4,0-4.6,0.7-6.7,2
		c-2.1,1.3-3.7,2.8-4.9,4.5L1040.8,340z"/>
	<path class="st0" d="M1077.9,340h-0.4c-0.1-2-0.8-3.7-2.2-5c-1.4-1.3-3.2-1.9-5.4-1.9h-1.5v-1.3h9.6V340z M1077.9,400.2v8.2h-9.6
		v-1.3h1.5c2.2,0,4-0.7,5.4-2c1.4-1.4,2.1-3,2.2-4.8H1077.9z M1085.6,331.9v76.5h-8v-76.5H1085.6z M1094.4,331.9c2.3,0,5,0.2,8,0.6
		c3,0.4,5.9,1.3,8.7,2.6c2.8,1.3,5.1,3.2,7,5.7c1.9,2.6,2.8,6,2.8,10.2c0,2.6-0.7,4.9-2,7.1c-1.4,2.2-3.1,4.1-5.2,5.5
		c-2.1,1.5-4.4,2.5-6.8,3.1c4.2,0.4,7.8,1.6,11,3.5c3.2,1.9,5.7,4.3,7.6,7.2c1.9,2.9,2.8,6,2.8,9.4c0,4.2-0.9,7.6-2.6,10.4
		c-1.7,2.8-4,5-6.8,6.6c-2.8,1.6-5.9,2.8-9.2,3.4c-3.3,0.7-6.5,1-9.7,1h-15.6c0.1-1.3,0.1-2.6,0.1-3.8h15.3c3.7,0,7-0.6,9.9-1.8
		c2.9-1.2,5.2-3.2,7-5.8c1.7-2.6,2.6-6,2.6-9.9c0-4.1-0.9-7.4-2.7-9.9c-1.8-2.5-4.1-4.4-7-5.7c-2.9-1.3-6.1-2.2-9.6-2.7
		c-3.5-0.5-7-0.7-10.5-0.7v-1.3c2.3,0,4.8-0.2,7.4-0.5c2.6-0.3,5.1-1,7.3-2.1c2.3-1.1,4.1-2.6,5.5-4.7c1.4-2.1,2.2-4.9,2.2-8.4
		c0-5.4-1.6-9.2-4.7-11.7c-3.1-2.4-7.5-3.6-13-3.6h-13.9c0-0.1-0.1-0.4-0.3-1.1c-0.2-0.6-0.5-1.6-0.8-2.7H1094.4z"/>
	<path class="st0" d="M1150.4,340h-0.3c-0.1-2-0.8-3.6-2.3-4.9c-1.4-1.3-3.2-2-5.2-2h-1.5v-1.3h9.3V340z M1150.4,400.2v8.2h-9.3
		v-1.3h1.5c2,0,3.8-0.7,5.2-2c1.4-1.4,2.2-3,2.3-4.8H1150.4z M1158.3,331.9v76.5h-8.2v-76.5H1158.3z M1157.9,340v-8.2h9.3v1.3
		c-0.9,0-1.4,0-1.5,0c-2,0-3.8,0.7-5.2,2c-1.4,1.3-2.2,3-2.2,4.9H1157.9z M1157.9,400.2h0.4c0,1.9,0.7,3.5,2.2,4.8
		c1.4,1.4,3.2,2,5.4,2h1.4v1.3h-9.3V400.2z M1203.9,332.8l-35.2,37.6h-6l32-37.6H1203.9z M1169.9,365.7l33.3,36.2
		c1.4,1.7,3,3,4.6,3.8c1.6,0.9,3.8,1.3,6.5,1.4v1.3h-4.7c-1,0-2.3-0.1-3.8-0.2c-1.5-0.1-3.1-0.4-4.8-0.9c-1.7-0.5-3.5-1.2-5.2-2.2
		c-1.7-1-3.4-2.3-4.9-4c-2.6-3-5-5.6-7.1-8c-2.1-2.3-4.4-4.8-6.8-7.4c-2.4-2.6-4.7-5.1-6.8-7.4c-2.1-2.3-4.5-5-7.3-8L1169.9,365.7z
		 M1212.2,331.9v1.3h-0.5c-2.6,0-5.1,0.4-7.3,1.3c-2.3,0.9-4.1,2.1-5.5,3.8l-8.7-0.1c0.9-1.2,1.1-2.3,0.4-3.4
		c-0.6-1.1-1.7-1.6-3.3-1.6h-1.1v-1.3h25.5H1212.2z"/>
	<path class="st0" d="M1231.5,340h-0.4c-0.1-2-1-3.6-2.6-4.9c-1.7-1.3-3.7-2-6.1-2c-0.1,0-0.7,0-1.8,0v-1.3h10.8V340z M1231.5,400.2
		v8.2h-10.8v-1.3h1.8c2.4,0,4.4-0.7,6.1-2c1.7-1.4,2.5-3,2.6-4.8H1231.5z M1239.1,331.9v76.5h-8v-76.5H1239.1z M1238.7,340v-8.2
		h10.8l-0.1,1.3h-1.7c-2.4,0-4.4,0.7-6.1,2c-1.7,1.3-2.5,3-2.6,4.9H1238.7z M1238.7,400.2h0.4c0.1,1.9,1,3.5,2.6,4.8
		c1.7,1.4,3.7,2,6.1,2h1.7l0.1,1.3h-10.8V400.2z"/>
	<path class="st0" d="M1272.9,339.9h-0.3c-0.1-2-0.8-3.6-2.2-4.8c-1.4-1.3-3.1-1.9-5.2-1.9h-1.8v-1.3h11.1L1272.9,339.9z
		 M1272.9,400.2l1.7,8.2h-11.1v-1.3h1.8c2.1,0,3.9-0.7,5.2-2c1.4-1.4,2.1-3,2.2-4.8H1272.9z M1280.8,331.9v76.5h-8.2v-76.5H1280.8z
		 M1315,331.9v4h-34.4v-4H1315z M1309.1,368.2v3.8h-28.6v-3.8H1309.1z M1315.1,404.4l-0.3,4h-34.3v-4H1315.1z M1322.3,390.1l-7,18.2
		h-19.4l4.3-4c4.3,0,7.7-0.6,10.3-1.8c2.6-1.2,4.7-2.9,6.3-5.1c1.6-2.2,3-4.6,4.2-7.3H1322.3z M1315,329.8v3.3l-14.5-1.3
		c2.6,0,5.4-0.2,8.4-0.7C1311.9,330.7,1313.9,330.2,1315,329.8z M1309.1,361.2v7.3h-6.6v-0.3c1.8,0,3.1-0.5,4-1.6
		c0.8-1.1,1.3-2.3,1.3-3.8v-1.7H1309.1z M1309.1,371.8v7.3h-1.4v-1.7c0-1.4-0.4-2.7-1.3-3.8c-0.9-1.1-2.2-1.6-4-1.6v-0.3H1309.1z
		 M1315,335.4v8.8h-1.4v-1.9c0-1.8-0.6-3.3-1.7-4.6c-1.1-1.3-2.7-1.9-4.7-1.9v-0.4H1315z"/>
	<path class="st0" d="M1374.3,330.1c3.9,0,7.6,0.3,11,0.8c3.4,0.6,6.7,1.4,9.8,2.6s6.1,2.6,8.9,4.4l2.8,18h-1.1
		c-1.2-5-3.1-9.1-5.8-12.4c-2.7-3.2-6.1-5.6-10.4-7.2c-4.3-1.6-9.4-2.4-15.3-2.4c-6.5,0-12.1,1.5-17,4.4c-4.9,2.9-8.7,7.1-11.4,12.5
		c-2.7,5.4-4.1,11.8-4.1,19.3c0,7.4,1.4,13.8,4.1,19.3c2.7,5.4,6.5,9.6,11.5,12.6c4.9,2.9,10.6,4.4,17.1,4.4c3.6,0,7-0.4,10.2-1.1
		c3.2-0.8,6.4-2,9.4-3.6c3-1.7,5.8-3.8,8.5-6.3l0.1-17c0.1-1.6-0.4-2.8-1.5-3.7c-1.1-0.8-2.5-1.3-4.4-1.3h-1.8V372h23.3v1.3h-1.8
		c-3.8,0-5.7,1.7-5.7,5.1v15.3c-2,2.5-4.6,5-8,7.5c-3.4,2.6-7.5,4.7-12.2,6.4c-4.7,1.7-10.1,2.6-16.1,2.6c-8.4-0.1-15.8-1.7-22-5
		s-11.1-7.8-14.6-13.8c-3.5-6-5.2-13.1-5.2-21.3c0-8.3,1.7-15.5,5.2-21.4c3.5-6,8.4-10.5,14.7-13.8
		C1358.7,331.7,1366,330.1,1374.3,330.1z"/>
	<path class="st0" d="M1470.1,330.1c5.9,0,11.5,1,16.8,2.9s9.8,4.7,13.8,8.2c4,3.6,7,7.8,9.2,12.7c2.2,4.9,3.3,10.3,3.3,16.3
		c0,6-1.1,11.4-3.3,16.3c-2.2,4.9-5.3,9.1-9.2,12.7c-4,3.6-8.5,6.3-13.8,8.2s-10.8,2.9-16.8,2.9c-6,0-11.5-1-16.7-2.9
		c-5.2-1.9-9.8-4.7-13.7-8.2s-7-7.8-9.2-12.7c-2.2-4.9-3.3-10.3-3.3-16.3c0-6,1.1-11.4,3.3-16.3c2.2-4.9,5.3-9.1,9.2-12.7
		s8.5-6.3,13.7-8.2C1458.6,331,1464.2,330.1,1470.1,330.1z M1470.1,406.3c6.3,0,12-1.5,17.1-4.6c5.1-3.1,9.1-7.3,12.1-12.8
		c3-5.4,4.5-11.7,4.5-18.9c0-7.2-1.5-13.5-4.5-18.9c-3-5.4-7-9.6-12.1-12.7s-10.8-4.6-17.1-4.6c-6.2,0-11.9,1.5-17,4.6
		c-5.1,3.1-9.1,7.3-12.1,12.7c-3,5.4-4.5,11.7-4.5,18.9c0,7.1,1.5,13.4,4.5,18.9c3,5.4,7,9.7,12.1,12.8
		C1458.2,404.8,1463.9,406.3,1470.1,406.3z"/>
	<path class="st0" d="M873.6,470.4c1.4,0,2.8,0.1,4.4,0.3c1.6,0.2,3.1,0.4,4.6,0.7c1.5,0.3,2.8,0.6,4.1,0.9c1.2,0.3,2.2,0.6,2.9,1
		v14.2h-1.1c0-4.1-1.4-7.3-4.2-9.6c-2.8-2.3-6.2-3.5-10.2-3.5c-4.7,0-8.5,1.5-11.3,4.4c-2.9,2.9-4.3,6.4-4.3,10.3
		c0,1.6,0.4,3.5,1.1,5.7s2.1,4.2,4,6.1l25.1,23.2c2.6,2.4,4.3,4.9,5.1,7.7c0.8,2.7,1.3,5.4,1.3,7.9c0,7.1-2.1,12.8-6.4,17.2
		c-4.3,4.4-10.1,6.6-17.4,6.6c-2,0-4.4-0.2-7.2-0.6c-2.8-0.4-5.4-1.2-8-2.2c-2.6-1.1-4.7-2.4-6.4-4.1c-0.3-1.4-0.4-3.1-0.4-5.1
		s0.2-4.2,0.5-6.4c0.3-2.3,0.8-4.3,1.4-6.2h1.1c-0.4,4.3,0.1,8.1,1.7,11.4c1.5,3.2,3.8,5.7,6.7,7.3s6.3,2.4,10,2.2
		c4.7-0.3,8.7-1.9,12.1-4.9c3.4-3,5-7.1,5-12.2c0-2.5-0.4-4.7-1.3-6.7c-0.8-2-2.1-3.7-3.7-5.2L858,507.7c-2.6-2.4-4.3-5-5.4-7.8
		c-1-2.8-1.5-5.5-1.5-8c0-3.6,0.8-7,2.6-10.3c1.7-3.3,4.2-6,7.6-8.1C864.6,471.4,868.7,470.4,873.6,470.4z M889.5,471.6v2.7h-9.7
		v-2.7H889.5z"/>
	<path class="st0" d="M968.5,483.1v1.1l-51,77.2h-8.9v-1.1l47.6-71.7h-45.7v-3.8h43.6c1.8,0,3.7-0.1,5.7-0.3c2-0.2,3.9-0.4,5.5-0.6
		C966.9,483.6,968,483.4,968.5,483.1z M910.5,482.7c0.8,0.3,2,0.5,3.6,0.8c1.6,0.3,3.4,0.6,5.3,0.8c1.9,0.2,3.7,0.4,5.4,0.4
		l-14.3,1.3V482.7z M910.5,488.4h7.8v0.3c-1.9,0.1-3.4,0.7-4.6,2c-1.2,1.2-1.8,2.8-1.8,4.7v1.9h-1.4V488.4z M969.6,557.6l-0.9,3.8
		h-51.9v-3.8H969.6z M976.5,543.2l-6.9,18.2h-19.1l4.3-3.8c4.2-0.1,7.5-0.7,10-1.9c2.5-1.2,4.6-2.9,6.2-5c1.6-2.2,3-4.7,4.2-7.5
		H976.5z"/>
	<path class="st0" d="M993.1,484.9v6.8h-0.3c-0.1-1.5-0.7-2.8-1.8-3.9c-1.1-1.1-2.6-1.6-4.3-1.6h-1.9v-1.3H993.1z M1001,484.9v48.2
		c0,8.2,2.1,14.8,6.3,19.5c4.2,4.8,10,7.1,17.3,7.1c8.1,0,14.4-2.3,19.1-6.8c4.6-4.5,7-10.7,7-18.5v-49.6h5.9v49.6
		c0,8.8-2.8,15.8-8.5,21c-5.7,5.1-13.4,7.7-23.3,7.7c-9.8,0-17.5-2.6-23.3-7.7c-5.7-5.1-8.6-12.1-8.6-20.9v-49.7H1001z M1009,484.9
		v1.3h-1.9c-1.6,0-3,0.5-4.3,1.6c-1.2,1.1-1.8,2.4-1.8,3.9h-0.3v-6.8H1009z M1050.9,484.9v6.8h-0.3c0-1.5-0.6-2.8-1.8-3.9
		c-1.2-1.1-2.6-1.6-4.3-1.6h-1.9v-1.3H1050.9z M1064.5,484.9v1.3h-1.9c-1.6,0-3,0.5-4.2,1.6c-1.2,1.1-1.8,2.4-1.9,3.9h-0.3v-6.8
		H1064.5z"/>
	<path class="st0" d="M1085.3,493.1h-0.3c-0.1-2-0.9-3.6-2.3-4.9c-1.4-1.3-3.2-2-5.2-2h-1.5v-1.3h9.3V493.1z M1085.3,553.3v8.2h-9.3
		v-1.3h1.5c2,0,3.8-0.7,5.2-2c1.4-1.4,2.2-3,2.3-4.8H1085.3z M1093.2,484.9v76.5h-8.2v-76.5H1093.2z M1092.8,493.1v-8.2h9.3v1.3
		c-0.9,0-1.4,0-1.5,0c-2,0-3.8,0.7-5.2,2c-1.4,1.3-2.2,3-2.2,4.9H1092.8z M1092.8,553.3h0.4c0,1.9,0.7,3.5,2.2,4.8
		c1.4,1.4,3.2,2,5.4,2h1.4v1.3h-9.3V553.3z M1138.9,485.8l-35.2,37.6h-6l32-37.6H1138.9z M1104.8,518.7l33.3,36.2
		c1.4,1.7,3,3,4.6,3.8c1.6,0.9,3.8,1.3,6.5,1.4v1.3h-4.7c-1,0-2.3-0.1-3.8-0.2c-1.5-0.1-3.1-0.4-4.8-0.9c-1.7-0.5-3.5-1.2-5.2-2.2
		c-1.7-1-3.4-2.3-4.9-4c-2.6-3-5-5.6-7.1-8c-2.1-2.3-4.4-4.8-6.8-7.4c-2.4-2.6-4.7-5.1-6.8-7.4c-2.1-2.3-4.6-5-7.3-8L1104.8,518.7z
		 M1147.2,484.9v1.3h-0.5c-2.6,0-5.1,0.4-7.3,1.3c-2.3,0.9-4.1,2.1-5.5,3.8l-8.7-0.1c0.9-1.2,1.1-2.3,0.4-3.4
		c-0.6-1.1-1.7-1.6-3.3-1.6h-1.1v-1.3h25.5H1147.2z"/>
	<path class="st0" d="M1166.8,552.1c-0.9,2.6-0.8,4.5,0.4,5.9c1.2,1.4,2.6,2.1,4.1,2.1h1v1.3h-24.4v-1.3h1c1.8,0,3.6-0.6,5.5-1.8
		c1.9-1.2,3.5-3.3,4.8-6.2H1166.8z M1191.4,483.1l0.9,8.8l-29.2,69.1h-8l30.2-64.8c0.9-2,1.7-3.8,2.4-5.3c0.6-1.5,1.2-3,1.7-4.4
		c0.5-1.4,0.8-2.6,0.9-3.4H1191.4z M1206.5,531.7v3.8h-33.8v-3.8H1206.5z M1191.4,483.1l35.1,77.5h-10.1l-27.2-66.2L1191.4,483.1z
		 M1213,552.1h9.7c1.3,2.9,2.8,5,4.7,6.2c1.9,1.2,3.7,1.8,5.4,1.8h1v1.3h-26.1v-1.3h1c1.4,0,2.8-0.7,4-2.1S1213.9,554.7,1213,552.1z
		"/>
	<path class="st0" d="M1247.2,553.5v7.9h-9.6v-1.3h2.2c2,0,3.6-0.6,5-1.9c1.4-1.3,2-2.8,2-4.7H1247.2z M1246.9,483l5.5,7.1l0.1,71.3
		h-5.7v-62.5c0-4.3-0.4-9.6-1.1-15.9H1246.9z M1246.9,483l70.7,66.6l1.3,13.6l-70.7-67L1246.9,483z M1252.5,553.5
		c0,1.9,0.7,3.4,2.1,4.7s3,1.9,4.9,1.9h2.2v1.3h-9.6v-7.9H1252.5z M1313.2,492.8c-0.1-1.9-0.8-3.4-2.2-4.7c-1.4-1.3-3-1.9-5-1.9
		h-2.2v-1.3h9.6v7.9H1313.2z M1318.8,484.9v62c0,2.7,0.1,5.3,0.3,7.8c0.2,2.5,0.5,5.3,0.9,8.5h-1.1l-5.6-6.8v-71.6H1318.8z
		 M1318.5,492.8v-7.9h9.6v1.3h-2.2c-1.9,0-3.5,0.6-4.9,1.9c-1.4,1.3-2.1,2.8-2.1,4.7H1318.5z"/>
	<path class="st0" d="M1350.3,493.1h-0.4c-0.1-2-1-3.6-2.6-4.9c-1.7-1.3-3.7-2-6.1-2c-0.1,0-0.7,0-1.8,0v-1.3h10.8V493.1z
		 M1350.3,553.3v8.2h-10.8v-1.3h1.8c2.4,0,4.4-0.7,6.1-2c1.7-1.4,2.5-3,2.6-4.8H1350.3z M1358,484.9v76.5h-8v-76.5H1358z
		 M1357.6,493.1v-8.2h10.8l-0.1,1.3h-1.7c-2.4,0-4.4,0.7-6.1,2c-1.7,1.3-2.5,3-2.6,4.9H1357.6z M1357.6,553.3h0.4
		c0.1,1.9,1,3.5,2.6,4.8c1.7,1.4,3.7,2,6.1,2h1.7l0.1,1.3h-10.8V553.3z"/>
	<path class="st0" d="M1393.6,552.1c-0.9,2.6-0.8,4.5,0.4,5.9c1.2,1.4,2.6,2.1,4.1,2.1h1v1.3h-24.4v-1.3h1c1.8,0,3.6-0.6,5.5-1.8
		c1.9-1.2,3.5-3.3,4.8-6.2H1393.6z M1418.2,483.1l0.9,8.8l-29.2,69.1h-8l30.2-64.8c0.9-2,1.7-3.8,2.4-5.3c0.6-1.5,1.2-3,1.7-4.4
		c0.5-1.4,0.8-2.6,0.9-3.4H1418.2z M1433.2,531.7v3.8h-33.8v-3.8H1433.2z M1418.2,483.1l35.1,77.5h-10.1l-27.2-66.2L1418.2,483.1z
		 M1439.7,552.1h9.7c1.3,2.9,2.8,5,4.7,6.2c1.9,1.2,3.7,1.8,5.4,1.8h1v1.3h-26.1v-1.3h1c1.4,0,2.8-0.7,4-2.1
		S1440.7,554.7,1439.7,552.1z"/>
</g>
<g>
	<path class="st0" d="M866.2,652.7c-2.2,0-4.3-0.4-6.3-1.2c-2-0.8-3.8-1.9-5.3-3.4s-2.8-3.2-3.7-5.2c-0.9-2-1.3-4.3-1.3-6.7
		c0-2.3,0.4-4.4,1.1-6.5c0.7-2.1,1.8-3.9,3.3-5.6s3.2-2.9,5.4-3.9c2.1-1,4.6-1.5,7.3-1.5c2.2,0,4.3,0.4,6.3,1.2
		c2,0.8,3.8,1.9,5.3,3.4c1.5,1.5,2.8,3.2,3.6,5.2c0.9,2,1.4,4.3,1.4,6.7c0,2.2-0.4,4.4-1.1,6.5s-1.8,4-3.3,5.6
		c-1.4,1.6-3.2,2.9-5.3,3.9C871.4,652.2,869,652.7,866.2,652.7z M866.9,650.7c2.6,0,4.7-0.5,6.4-1.6s3-2.6,3.8-4.5
		c0.8-2,1.3-4.2,1.3-6.8c0-2.3-0.3-4.5-0.8-6.5s-1.3-3.8-2.4-5.4s-2.4-2.8-3.9-3.6c-1.6-0.9-3.4-1.3-5.5-1.3c-2.5,0-4.6,0.5-6.3,1.6
		c-1.7,1.1-3,2.6-3.9,4.5c-0.9,1.9-1.3,4.2-1.3,6.8c0,2.3,0.3,4.5,0.8,6.5c0.5,2,1.3,3.8,2.3,5.4c1,1.6,2.4,2.8,3.9,3.7
		C863,650.2,864.8,650.7,866.9,650.7z"/>
	<path class="st0" d="M887.9,652.1c-0.3,0-0.6,0-0.8-0.1c-0.2-0.1-0.3-0.2-0.3-0.4c0-0.3,0.1-0.4,0.3-0.5s0.5-0.2,0.8-0.3
		c0.6-0.2,1.1-0.4,1.4-0.7c0.3-0.3,0.5-0.7,0.5-1.2v-10.8c0-0.9-0.1-1.7-0.4-2.4c-0.3-0.7-0.8-1.1-1.6-1.3c-0.1,0-0.3-0.1-0.4-0.3
		c-0.1-0.1-0.1-0.3-0.1-0.4c0-0.3,0.1-0.5,0.5-0.6c0.9-0.3,1.8-0.7,2.7-1.2c1-0.5,1.7-0.9,2.2-1.3c0.2-0.1,0.4-0.2,0.5-0.3
		c0.1,0,0.2-0.1,0.3-0.1c0.2,0,0.3,0.1,0.3,0.3c0,0.1,0,0.4,0,0.8c0,0.4,0,0.9,0,1.4c0,0.5,0,1.1-0.1,1.6c0,0.1,0,0.1,0.1,0.1
		c0.5-0.7,1.1-1.3,1.8-1.8c0.6-0.5,1.3-0.9,2-1.2c0.7-0.3,1.3-0.5,2-0.5c0.7,0,1.3,0.2,1.7,0.5c0.4,0.3,0.7,0.7,0.7,1.2
		c0,0.3-0.1,0.7-0.3,1.1c-0.2,0.4-0.4,0.8-0.7,1s-0.6,0.5-1,0.5c-0.2,0-0.4,0-0.7-0.1c-0.2-0.1-0.5-0.2-0.8-0.3
		c-0.3-0.1-0.5-0.2-0.8-0.3s-0.5-0.2-0.8-0.2c-0.8,0-1.6,0.3-2.3,0.9c-0.8,0.6-1.1,1.7-1.1,3.3v10.1c0,0.4,0.2,0.8,0.7,1.1
		c0.5,0.3,1.1,0.6,2,0.8c0.4,0.1,0.6,0.2,0.8,0.3c0.2,0.1,0.3,0.3,0.3,0.5c0,0.4-0.3,0.6-1,0.6c-1,0-1.8,0-2.3-0.1
		c-0.5-0.1-1.2-0.1-2.1-0.1c-0.6,0-1,0-1.4,0s-0.7,0.1-1.1,0.1C889.1,652.1,888.6,652.1,887.9,652.1z"/>
	<path class="st0" d="M911.9,666.5c-2.8,0-5.1-0.5-6.7-1.6c-1.7-1.1-2.5-2.5-2.5-4.4c0-0.9,0.1-1.6,0.4-2.2c0.3-0.6,0.7-1.1,1.3-1.5
		c0.5-0.4,1.1-0.9,1.9-1.5c0.8-0.6,1.6-1.3,2.4-1.9l2.1,0.1c-1.6,1-2.7,2-3.3,2.9c-0.6,0.9-1,2.1-1,3.4c0,1.3,0.6,2.5,1.8,3.4
		c1.2,0.9,2.6,1.4,4.4,1.4c2,0,3.5-0.5,4.8-1.3c0.8-0.6,1.5-1.5,2-2.5c0.5-1,0.7-2.1,0.7-3.2c0-0.7-0.3-1.3-0.8-1.8
		c-0.5-0.5-1.3-0.9-2.4-1.2c-1.1-0.3-2.5-0.5-4.3-0.6c-3.1-0.2-5.3-0.6-6.5-1.3c-1.2-0.6-1.8-1.5-1.8-2.8c0-0.3,0.1-0.6,0.3-0.9
		c0.2-0.3,0.5-0.6,0.9-0.9c0.8-0.6,1.3-1,1.7-1.3s0.6-0.5,0.8-0.7c0.2-0.2,0.4-0.5,0.5-0.8l1.7,0.8c-0.7,0.3-1.4,0.6-1.9,1.1
		s-0.8,0.9-0.8,1.2c0,0.5,0.3,0.9,0.8,1.2c0.5,0.3,1.2,0.6,2.2,0.8c1,0.2,2.2,0.4,3.5,0.5c3.1,0.2,5.4,0.7,6.9,1.5s2.3,2,2.3,3.5
		c0,1.3-0.3,2.6-1,3.8c-0.6,1.3-1.5,2.4-2.6,3.4s-2.3,1.9-3.6,2.5C914.6,666.2,913.3,666.5,911.9,666.5z M912.2,646.7
		c-1.4,0-2.7-0.4-3.9-1c-1.2-0.7-2.2-1.6-3-2.8s-1.2-2.4-1.2-3.8c0-1.6,0.4-2.9,1.2-4.1c0.8-1.2,1.9-2.1,3.2-2.8
		c1.3-0.7,2.8-1,4.3-1c1,0,1.8,0.1,2.5,0.4s1.4,0.5,2.1,0.7c0.8,0.2,1.4,0.4,1.9,0.4c0.5,0,1,0.1,1.5,0.1c0.4,0,0.9,0,1.5-0.1
		c0.6,0,1-0.1,1.3-0.1c0.4,0,0.6,0.3,0.6,0.8c0,0.3-0.2,0.6-0.5,1c-0.2,0.2-0.3,0.3-0.4,0.3H922c-0.9,0-1.4,0.1-1.5,0.4
		c0,0.1-0.1,0.3-0.1,0.6s-0.1,0.5-0.1,0.8c0,0.3,0,0.6,0,0.9c0,1.7-0.4,3.3-1.1,4.7c-0.7,1.4-1.7,2.6-2.9,3.5
		S913.7,646.7,912.2,646.7z M912.5,644.9c1.3,0,2.3-0.6,3.2-1.9c0.8-1.3,1.3-2.9,1.3-4.8c0-1-0.2-1.9-0.7-2.7
		c-0.5-0.9-1-1.5-1.8-2.1c-0.7-0.5-1.5-0.8-2.3-0.8c-0.8,0-1.5,0.3-2.2,0.8c-0.7,0.5-1.2,1.3-1.7,2.1s-0.6,1.8-0.6,2.8
		c0,1.2,0.2,2.2,0.7,3.2c0.4,1,1,1.8,1.8,2.4C910.9,644.6,911.7,644.9,912.5,644.9z"/>
	<path class="st0" d="M929.8,652.7c-0.6,0-1.2-0.2-1.8-0.7c-0.6-0.5-1.1-1-1.6-1.7c-0.4-0.7-0.6-1.3-0.6-1.9c0-1.1,0.3-1.9,0.9-2.5
		c0.6-0.6,1.5-1.2,2.7-1.7l5.1-2.1c0.7-0.3,1.1-0.5,1.2-0.7c0.1-0.2,0.2-0.6,0.2-1.3l0.1-3.2c0-0.9-0.2-1.6-0.7-2.3
		c-0.5-0.6-1.3-1-2.2-1c-0.5,0-1,0.1-1.5,0.3c-0.5,0.2-0.9,0.4-1.3,0.7c-0.2,0.1-0.3,0.3-0.4,0.6c-0.1,0.3-0.1,0.5-0.1,0.8
		c0,0.1,0,0.3,0,0.5c0,0.2,0,0.3,0,0.5c0,0.2-0.2,0.4-0.6,0.7c-0.4,0.3-0.9,0.5-1.4,0.8c-0.5,0.2-0.9,0.3-1.3,0.3
		c-0.2,0-0.3,0-0.4-0.1c-0.1-0.1-0.2-0.2-0.2-0.3c0-0.5,0.2-1.1,0.5-1.7c0.3-0.6,0.8-1.2,1.5-1.7c0.8-0.7,1.6-1.3,2.5-1.8
		s1.8-1,2.7-1.3c0.9-0.3,1.6-0.5,2.3-0.5c1.2,0,2.2,0.4,3,1.3c0.8,0.8,1.2,1.9,1.1,3.2l-0.3,12c0,0.7,0.1,1.3,0.5,1.7
		c0.3,0.4,0.8,0.6,1.3,0.6c0.8,0,1.5-0.2,1.9-0.5c0.2-0.2,0.3-0.3,0.4-0.3c0.2,0,0.3,0,0.4,0.2c0.1,0.1,0.2,0.2,0.2,0.4
		c0,0.4-0.2,0.7-0.6,1.1c-0.5,0.5-1.1,1-1.7,1.3c-0.6,0.3-1.2,0.5-1.7,0.5c-1.5,0-2.8-0.9-3.7-2.6H936c-1.1,0.9-2.1,1.6-3.1,2
		C931.9,652.5,930.9,652.7,929.8,652.7z M932.1,650.3c0.7,0,1.2-0.1,1.7-0.3c0.5-0.2,0.9-0.5,1.3-0.9c0.2-0.2,0.3-0.4,0.4-0.7
		c0.1-0.3,0.2-0.7,0.2-1.4l0.1-2.5c0-0.4,0-0.6-0.1-0.8c-0.1-0.2-0.2-0.3-0.4-0.3c-0.1,0-0.2,0-0.4,0c-0.2,0-0.4,0.1-0.6,0.2
		c-1.8,0.6-3,1.3-3.7,2c-0.7,0.7-1,1.3-1,1.9c0,0.9,0.3,1.5,0.8,2C931,650.1,931.5,650.3,932.1,650.3z"/>
	<path class="st0" d="M946.1,652.1c-0.3,0-0.5,0-0.7-0.1c-0.2-0.1-0.3-0.2-0.3-0.4c0-0.3,0.1-0.4,0.3-0.5s0.5-0.2,0.8-0.3
		c0.5-0.1,1-0.3,1.5-0.5c0.5-0.2,0.7-0.7,0.7-1.3v-10.8c0-0.9-0.1-1.7-0.3-2.3c-0.2-0.6-0.7-1.1-1.6-1.3c-0.1-0.1-0.3-0.1-0.4-0.2
		c-0.1-0.1-0.1-0.2-0.1-0.4c0-0.4,0.1-0.6,0.4-0.6c1.2-0.3,2.1-0.7,2.9-1.1c0.7-0.4,1.5-0.9,2.1-1.5c0.1-0.1,0.2-0.1,0.3-0.2
		c0.1,0,0.2-0.1,0.3-0.1c0.1,0,0.1,0,0.2,0.1c0,0.1,0.1,0.2,0.1,0.3c0,0.2,0,0.7-0.1,1.4c-0.1,0.7-0.1,1.3-0.1,1.8
		c0,0.1,0,0.3,0,0.4c0,0.1,0,0.2,0.1,0.2c1.2-1.1,2.4-1.9,3.7-2.5s2.8-0.9,4.3-0.9c1.6,0,3,0.7,4,2c1.1,1.3,1.6,3,1.6,5v10.7
		c0,0.7,0.2,1.1,0.7,1.3c0.5,0.2,0.9,0.4,1.4,0.6c0.3,0.1,0.5,0.2,0.8,0.3c0.3,0.1,0.4,0.3,0.4,0.6c0,0.2-0.1,0.3-0.3,0.4
		c-0.2,0-0.5,0.1-0.7,0.1c-0.7,0-1.2,0-1.5-0.1c-0.4,0-0.7-0.1-1-0.1c-0.3,0-0.8,0-1.4,0c-0.6,0-1,0-1.4,0s-0.7,0.1-1.1,0.1
		s-0.9,0.1-1.6,0.1c-0.2,0-0.4,0-0.6-0.1s-0.4-0.2-0.4-0.4c0-0.3,0.1-0.5,0.4-0.6c0.3-0.1,0.5-0.2,0.8-0.3c0.5-0.2,1-0.4,1.5-0.6
		c0.5-0.2,0.7-0.7,0.7-1.3v-10.5c0-1.5-0.4-2.6-1.2-3.4c-0.8-0.8-1.9-1.2-3.3-1.3c-1.2,0-2.3,0.2-3.2,0.6c-0.9,0.4-1.7,0.9-2.4,1.4
		c-0.1,0.1-0.2,0.3-0.3,0.5c-0.1,0.2-0.1,0.4-0.1,0.6v12.1c0,0.7,0.2,1.1,0.7,1.3c0.5,0.2,1,0.4,1.5,0.5c0.8,0.2,1.1,0.5,1.1,0.8
		c0,0.2-0.1,0.3-0.3,0.4c-0.2,0.1-0.4,0.1-0.8,0.1c-0.7,0-1.2,0-1.6-0.1s-0.7-0.1-1.1-0.1c-0.3,0-0.8,0-1.4,0c-0.6,0-1,0-1.4,0
		s-0.7,0.1-1.1,0.1C947.3,652.1,946.8,652.1,946.1,652.1z"/>
	<path class="st0" d="M972.5,652.1c-0.3,0-0.5,0-0.7-0.1c-0.2-0.1-0.3-0.2-0.3-0.4c0-0.3,0.1-0.4,0.4-0.5c0.3-0.1,0.5-0.2,0.8-0.3
		c0.7-0.2,1.2-0.4,1.6-0.6c0.4-0.3,0.5-0.7,0.5-1.3V638c0-0.9-0.2-1.7-0.5-2.4c-0.3-0.7-0.9-1.1-1.8-1.3c-0.2,0-0.3-0.1-0.4-0.2
		c-0.1-0.1-0.1-0.3-0.1-0.5c0-0.4,0.2-0.6,0.5-0.6c1.3-0.3,2.4-0.7,3.3-1.2c0.9-0.5,1.5-0.9,2-1.3c0.3-0.2,0.5-0.4,0.7-0.4
		c0.2,0,0.3,0.1,0.3,0.3c0,0.3,0,0.8-0.1,1.6c-0.1,0.8-0.2,1.7-0.2,2.6c-0.1,1-0.1,1.8-0.1,2.6v11.6c0,0.6,0.2,1,0.6,1.3
		c0.4,0.3,0.9,0.5,1.6,0.6c0.3,0.1,0.5,0.2,0.8,0.3c0.3,0.1,0.4,0.3,0.4,0.5c0,0.4-0.3,0.6-1,0.6c-0.6,0-1.1,0-1.5-0.1
		c-0.4,0-0.8-0.1-1.1-0.1c-0.3,0-0.8,0-1.4,0c-0.6,0-1,0-1.4,0s-0.7,0.1-1.1,0.1C973.7,652.1,973.2,652.1,972.5,652.1z M976.5,626.2
		c-0.7,0-1.3-0.2-1.8-0.7c-0.5-0.5-0.7-1.1-0.7-1.8c0-0.7,0.2-1.3,0.7-1.8c0.5-0.5,1.1-0.7,1.8-0.7c0.7,0,1.3,0.2,1.8,0.7
		c0.5,0.5,0.7,1.1,0.7,1.8c0,0.7-0.2,1.3-0.7,1.8C977.8,625.9,977.2,626.2,976.5,626.2z"/>
	<path class="st0" d="M989.7,652.7c-1,0-2-0.2-2.9-0.5c-0.9-0.3-1.7-0.8-2.3-1.3c-0.2-0.4-0.3-1-0.4-1.9c-0.1-0.9-0.1-1.6-0.2-2.1
		c0-0.3,0.2-0.5,0.6-0.5c0.1,0,0.3,0,0.4,0.1c0.1,0,0.2,0.1,0.2,0.3c0.4,1.6,1.1,2.8,2.1,3.5c0.9,0.7,1.9,1,2.9,1c1,0,1.8-0.3,2.5-1
		c0.7-0.7,1-1.5,1-2.4c0-0.9-0.3-1.7-0.9-2.3s-1.7-1.4-3.2-2.4c-1.1-0.7-2-1.4-2.8-2c-0.7-0.6-1.2-1.3-1.5-2
		c-0.3-0.7-0.5-1.4-0.5-2.3c0-1.1,0.3-2,0.8-2.9s1.3-1.6,2.3-2.1s2.3-0.8,3.8-0.8c1,0,1.8,0.1,2.5,0.3c0.7,0.2,1.2,0.4,1.5,0.7
		c0.3,0.4,0.5,0.9,0.7,1.7c0.2,0.8,0.3,1.5,0.3,2.2c0,0.2-0.2,0.3-0.5,0.3c-0.2,0-0.4,0-0.6-0.1c-0.2-0.1-0.3-0.2-0.4-0.3
		c-0.4-1.1-1-1.9-1.6-2.5c-0.6-0.6-1.5-0.9-2.4-0.9c-0.8,0-1.6,0.3-2.2,0.8c-0.7,0.5-1,1.2-1,2.2c0,0.8,0.2,1.4,0.7,2
		c0.5,0.6,1.4,1.3,2.7,2c1.9,1.1,3.4,2.1,4.3,3.1s1.4,2.2,1.4,3.8c0,1.8-0.7,3.3-2,4.4C993.7,652.1,991.9,652.7,989.7,652.7z"/>
	<path class="st0" d="M1008.1,652.7c-1.6,0-2.9-0.5-3.8-1.5c-0.9-1-1.4-2.5-1.4-4.5v-11.6c0-0.3-0.1-0.5-0.3-0.6
		c-0.2-0.1-0.6-0.2-1.3-0.2h-0.3c-0.2,0-0.3-0.1-0.4-0.3c-0.1-0.2-0.2-0.4-0.2-0.7c0-0.1,0-0.2,0.2-0.3c0.1-0.1,0.2-0.2,0.2-0.3
		c0.7-0.5,1.3-0.9,1.8-1.4s1-0.9,1.5-1.4s0.8-0.9,1.1-1.2c0.2-0.2,0.3-0.3,0.4-0.4c0.1-0.1,0.3-0.2,0.4-0.2c0.2,0,0.3,0,0.5,0.1
		c0.2,0.1,0.2,0.2,0.2,0.5l-0.3,2.3c0,0.4,0,0.6,0.3,0.8c0.2,0.1,0.5,0.2,1,0.2h5.7c0.1,0,0.3,0.1,0.3,0.3c0.1,0.2,0.2,0.5,0.2,0.8
		c0,0.3,0,0.6-0.2,0.9c-0.1,0.3-0.2,0.4-0.3,0.4h-5c-0.8,0-1.4,0.1-1.6,0.2c-0.3,0.1-0.4,0.5-0.4,1.2v9.9c0,1.3,0.3,2.4,0.8,3.1
		c0.6,0.8,1.4,1.2,2.5,1.2c1,0,1.7-0.1,2.3-0.2c0.5-0.1,1-0.4,1.5-0.7c0.1-0.1,0.1-0.1,0.2-0.1c0.1,0,0.2,0.1,0.3,0.2
		c0.1,0.2,0.1,0.3,0.1,0.5s-0.3,0.5-0.8,1c-0.5,0.5-1.3,1-2.1,1.4C1010.1,652.5,1009.2,652.7,1008.1,652.7z"/>
	<path class="st0" d="M1017.3,630.7c-0.6,0-0.9-0.2-0.9-0.5c0-0.1,0.1-0.3,0.2-0.4s0.3-0.2,0.5-0.2c0.7-0.2,1.5-0.5,2.2-0.8
		c0.7-0.4,1.3-1,1.8-1.7s0.8-1.7,0.8-2.9c0-0.4-0.2-0.9-0.5-1.4c-0.4-0.5-0.8-0.8-1.4-0.8c-0.7-0.1-1.3-0.3-1.7-0.7
		c-0.4-0.4-0.6-0.9-0.6-1.4c0-0.7,0.3-1.2,0.8-1.6s1.2-0.7,1.9-0.7c1.2,0,2.2,0.5,3,1.4c0.8,0.9,1.2,2.1,1.2,3.5
		c0,1.3-0.3,2.4-0.7,3.4c-0.5,1-1.1,1.9-1.9,2.6c-0.8,0.7-1.6,1.3-2.4,1.7C1018.7,630.5,1018,630.7,1017.3,630.7z"/>
	<path class="st0" d="M1033.7,652.7c-1,0-2-0.2-2.9-0.5c-0.9-0.3-1.7-0.8-2.3-1.3c-0.2-0.4-0.3-1-0.4-1.9c-0.1-0.9-0.1-1.6-0.2-2.1
		c0-0.3,0.2-0.5,0.6-0.5c0.1,0,0.3,0,0.4,0.1c0.1,0,0.2,0.1,0.2,0.3c0.4,1.6,1.1,2.8,2.1,3.5c0.9,0.7,1.9,1,2.9,1c1,0,1.8-0.3,2.5-1
		c0.7-0.7,1-1.5,1-2.4c0-0.9-0.3-1.7-0.9-2.3s-1.7-1.4-3.2-2.4c-1.1-0.7-2-1.4-2.8-2c-0.7-0.6-1.2-1.3-1.5-2
		c-0.3-0.7-0.5-1.4-0.5-2.3c0-1.1,0.3-2,0.8-2.9s1.3-1.6,2.3-2.1s2.3-0.8,3.8-0.8c1,0,1.8,0.1,2.5,0.3c0.7,0.2,1.2,0.4,1.5,0.7
		c0.3,0.4,0.5,0.9,0.7,1.7c0.2,0.8,0.3,1.5,0.3,2.2c0,0.2-0.2,0.3-0.5,0.3c-0.2,0-0.4,0-0.6-0.1c-0.2-0.1-0.3-0.2-0.4-0.3
		c-0.4-1.1-1-1.9-1.6-2.5c-0.6-0.6-1.5-0.9-2.4-0.9c-0.8,0-1.6,0.3-2.2,0.8c-0.7,0.5-1,1.2-1,2.2c0,0.8,0.2,1.4,0.7,2
		c0.5,0.6,1.4,1.3,2.7,2c1.9,1.1,3.4,2.1,4.3,3.1s1.4,2.2,1.4,3.8c0,1.8-0.7,3.3-2,4.4C1037.6,652.1,1035.8,652.7,1033.7,652.7z"/>
	<path class="st0" d="M1072.2,652.7c-2.3,0-4.5-0.4-6.6-1.2c-2.1-0.8-3.9-2-5.6-3.4c-1.6-1.5-2.9-3.2-3.8-5.2
		c-0.9-2-1.4-4.1-1.4-6.4c0-2.5,0.5-4.8,1.5-6.9c1-2.1,2.3-4,4-5.6c1.7-1.6,3.7-2.9,5.9-3.8c2.2-0.9,4.6-1.4,7.1-1.4
		c0.6,0,1.3,0.1,2.3,0.2s2,0.3,3.1,0.4c1,0.2,2,0.3,2.8,0.5c0.8,0.2,1.4,0.4,1.8,0.5c0.2,0.1,0.3,0.1,0.3,0.2
		c0.1,0.1,0.1,0.2,0.1,0.4c0.1,1,0.3,1.9,0.4,2.9c0.1,1,0.1,1.8,0.1,2.4c0,0.2-0.1,0.5-0.2,0.7s-0.3,0.3-0.5,0.3
		c-0.3,0-0.6-0.2-0.8-0.5s-0.3-0.6-0.4-0.9c-0.2-0.5-0.4-1-0.6-1.4c-0.2-0.4-0.5-0.8-0.9-1.3c-0.2-0.3-0.6-0.6-1.3-1
		c-0.7-0.4-1.5-0.8-2.6-1.1c-1.1-0.3-2.5-0.5-4-0.5c-1.9,0-3.7,0.4-5.3,1.2c-1.6,0.8-3,1.9-4.1,3.4c-1.2,1.4-2,3-2.7,4.8
		c-0.6,1.8-0.9,3.7-0.9,5.6c0,2.4,0.4,4.5,1.1,6.4s1.7,3.4,3,4.8c1.2,1.3,2.6,2.3,4.2,2.9c1.6,0.7,3.2,1,4.8,1
		c1.9,0,3.4-0.2,4.3-0.7c0.9-0.5,1.5-0.9,1.8-1.2c0.4-0.4,0.7-0.9,1-1.5c0.3-0.7,0.5-1.4,0.5-2.3c0-0.3,0-0.6,0-1s0-0.7,0-1
		s0-0.7,0-1c0-0.4,0-0.7,0-0.9c0-0.3-0.1-0.4-0.2-0.6c-0.3-0.4-0.7-0.7-1.4-0.9c-0.7-0.2-1.3-0.4-2-0.5c-0.7-0.1-1.2-0.1-1.5-0.1
		c-0.1,0-0.3-0.1-0.6-0.3c-0.3-0.2-0.4-0.4-0.4-0.6c0-0.3,0.1-0.5,0.4-0.6c0.3-0.1,0.5-0.2,0.6-0.2c0.8,0,1.6,0,2.2,0
		c0.6,0,1.2,0.1,1.8,0.1s1.4,0,2.3,0c0.9,0,1.6,0,2.2-0.1c0.6-0.1,1.4-0.1,2.3-0.1c0.1,0,0.3,0,0.6,0.2c0.3,0.1,0.4,0.3,0.4,0.6
		c0,0.2-0.1,0.4-0.4,0.6s-0.5,0.3-0.6,0.3c-0.7,0.2-1.2,0.5-1.5,0.9c-0.3,0.4-0.5,0.9-0.6,1.6c-0.1,0.7-0.2,1.4-0.2,1.9
		c0,0.6,0,1.2,0,1.8v1.3c0,0.2,0,0.3,0.1,0.4c0.1,0.1,0.1,0.2,0.2,0.4c0.1,0.2,0.2,0.3,0.4,0.5c0.2,0.1,0.3,0.3,0.3,0.4
		s0,0.3-0.1,0.5c0,0.2-0.3,0.4-0.6,0.4c-0.2,0-0.7,0.2-1.4,0.6c-0.7,0.4-1.5,0.7-2.6,1.2c-1,0.4-2.2,0.8-3.5,1.1
		C1075.3,652.5,1073.8,652.7,1072.2,652.7z"/>
	<path class="st0" d="M1107.4,652.9c-0.2,0-0.3-0.1-0.3-0.4c0-0.3,0-0.8,0.1-1.5c0.1-0.7,0.1-1.2,0.1-1.6c0-0.1,0-0.1,0-0.2
		c0-0.1,0-0.1,0-0.1c-1.3,1.3-2.6,2.2-3.9,2.7c-1.3,0.5-2.8,0.8-4.3,0.8c-1.1,0-2-0.2-2.9-0.7c-0.9-0.5-1.5-1.1-2-2s-0.8-2-0.8-3.3
		v-10.2c0-0.7-0.2-1.3-0.5-1.8c-0.3-0.4-0.9-0.8-1.7-1.1c-0.2-0.1-0.3-0.2-0.4-0.3c-0.1-0.1-0.2-0.3-0.2-0.5c0-0.3,0.1-0.5,0.2-0.6
		c0.2-0.1,0.3-0.2,0.5-0.2c1.1-0.1,2-0.2,2.6-0.3c0.6-0.1,1.4-0.3,2.3-0.5c0.1,0,0.2,0,0.2,0s0.1,0,0.2,0c0.4,0,0.5,0.2,0.5,0.7
		c-0.1,0.8-0.2,1.4-0.2,1.9c0,0.5-0.1,1.2-0.1,1.9v9.8c0,0.8,0.2,1.5,0.6,2.2c0.4,0.7,0.9,1.2,1.6,1.7c0.7,0.4,1.3,0.7,2,0.7
		c0.9,0,1.6-0.1,2.3-0.2c0.7-0.1,1.3-0.4,1.9-0.8c0.4-0.3,0.8-0.7,1.4-1.3c0.6-0.6,0.9-1.4,0.9-2.4v-9.2c0-0.7-0.2-1.2-0.6-1.6
		c-0.4-0.3-0.9-0.6-1.4-0.7c-0.5-0.1-1-0.2-1.3-0.2c-0.3,0-0.5-0.1-0.8-0.2c-0.2-0.1-0.3-0.3-0.3-0.7c0-0.3,0.1-0.5,0.3-0.6
		c0.2-0.1,0.5-0.1,0.7-0.1c1,0,1.9-0.1,2.6-0.1c0.7-0.1,1.3-0.1,1.8-0.3c0.6-0.1,1.1-0.3,1.7-0.4c0.1,0,0.1-0.1,0.3-0.1
		c0.1,0,0.2,0,0.3,0c0.4,0,0.6,0.2,0.6,0.5c0,0,0,0.1,0,0.2c0,0.1,0,0.2-0.1,0.3s-0.1,0.4-0.1,0.8c0,0.5-0.1,1-0.2,1.5
		c0,0.5-0.1,0.9-0.1,1.2v11.5c0,0.9,0.1,1.5,0.3,1.9c0.2,0.4,0.4,0.6,0.6,0.6c0.3,0,0.7,0,1.2-0.1s0.9-0.1,1.1-0.1
		c0.2,0,0.3,0,0.5,0.1c0.2,0.1,0.3,0.3,0.3,0.5c0,0.3-0.1,0.4-0.2,0.5c-0.1,0.1-0.3,0.1-0.5,0.2c-1.3,0.2-2.4,0.4-3.4,0.8
		c-0.9,0.3-1.8,0.6-2.5,1c-0.1,0-0.3,0.1-0.5,0.2C1107.7,652.9,1107.5,652.9,1107.4,652.9z"/>
	<path class="st0" d="M1117.6,652.1c-0.3,0-0.5,0-0.7-0.1c-0.2-0.1-0.3-0.2-0.3-0.4c0-0.3,0.1-0.4,0.4-0.5c0.3-0.1,0.5-0.2,0.8-0.3
		c0.7-0.2,1.2-0.4,1.6-0.6c0.4-0.3,0.5-0.7,0.5-1.3V638c0-0.9-0.2-1.7-0.5-2.4c-0.3-0.7-0.9-1.1-1.8-1.3c-0.2,0-0.3-0.1-0.4-0.2
		c-0.1-0.1-0.1-0.3-0.1-0.5c0-0.4,0.2-0.6,0.5-0.6c1.3-0.3,2.4-0.7,3.3-1.2c0.9-0.5,1.5-0.9,2-1.3c0.3-0.2,0.5-0.4,0.7-0.4
		c0.2,0,0.3,0.1,0.3,0.3c0,0.3,0,0.8-0.1,1.6c-0.1,0.8-0.2,1.7-0.2,2.6c-0.1,1-0.1,1.8-0.1,2.6v11.6c0,0.6,0.2,1,0.6,1.3
		c0.4,0.3,0.9,0.5,1.6,0.6c0.3,0.1,0.5,0.2,0.8,0.3c0.3,0.1,0.4,0.3,0.4,0.5c0,0.4-0.3,0.6-1,0.6c-0.6,0-1.1,0-1.5-0.1
		c-0.4,0-0.8-0.1-1.1-0.1c-0.3,0-0.8,0-1.4,0c-0.6,0-1,0-1.4,0s-0.7,0.1-1.1,0.1C1118.8,652.1,1118.3,652.1,1117.6,652.1z
		 M1121.6,626.2c-0.7,0-1.3-0.2-1.8-0.7c-0.5-0.5-0.7-1.1-0.7-1.8c0-0.7,0.2-1.3,0.7-1.8c0.5-0.5,1.1-0.7,1.8-0.7
		c0.7,0,1.3,0.2,1.8,0.7c0.5,0.5,0.7,1.1,0.7,1.8c0,0.7-0.2,1.3-0.7,1.8C1123,625.9,1122.4,626.2,1121.6,626.2z"/>
	<path class="st0" d="M1145.5,652.9c-0.1,0-0.2-0.1-0.3-0.2c-0.2-0.1-0.2-0.2-0.2-0.3c0-0.3,0-0.8,0.1-1.4s0.1-1.1,0.1-1.6v-0.3
		c-0.5,0.8-1.3,1.5-2.4,2.3c-1.1,0.8-2.5,1.2-4.2,1.2c-1.9,0-3.5-0.5-4.9-1.5c-1.4-1-2.5-2.3-3.2-3.9c-0.8-1.6-1.1-3.2-1.1-4.8
		c0-1.9,0.5-3.8,1.3-5.5c0.9-1.7,2.2-3.1,3.9-4.1s3.7-1.6,6-1.6c0.7,0,1.3,0.1,2,0.2c0.7,0.1,1.2,0.2,1.6,0.4
		c0.3,0.1,0.5,0.2,0.7,0.2c0.2,0,0.3-0.4,0.3-1.2v-7.1c0-1.4-0.2-2.3-0.6-2.8c-0.4-0.5-1-0.8-1.9-0.9c-0.3-0.1-0.4-0.3-0.4-0.6
		c0-0.3,0.1-0.5,0.4-0.6c1.5-0.4,2.6-0.7,3.5-1c0.8-0.3,1.5-0.6,2-0.8c0.1-0.1,0.3-0.1,0.4-0.1c0.1,0,0.2,0,0.3,0
		c0.2,0,0.3,0.1,0.4,0.3c0,0.2,0,0.5-0.1,1c0,0.5-0.1,1.2-0.2,2.1c-0.1,0.9-0.1,2.2-0.1,3.7v22.6c0,1.1,0.1,2,0.3,2.5
		c0.2,0.5,0.4,0.8,0.8,0.8c0.2,0,0.5,0,0.9,0c0.4,0,0.8-0.1,1.3-0.1c0.6,0,0.9,0.1,0.9,0.5c0,0.2-0.1,0.4-0.2,0.6
		c-0.1,0.2-0.3,0.3-0.5,0.3c-0.9,0.1-1.8,0.3-2.8,0.6s-1.9,0.6-3.1,1.1c-0.3,0.1-0.4,0.2-0.5,0.3
		C1145.7,652.9,1145.6,652.9,1145.5,652.9z M1140.5,650.1c0.9,0,1.7-0.2,2.5-0.7s1.6-1,2.2-1.8l0-9c0-0.9-0.3-1.8-0.8-2.7
		c-0.5-0.9-1.2-1.6-2.2-2.1s-2-0.8-3.2-0.8c-0.8,0-1.6,0.2-2.6,0.7s-1.8,1.3-2.5,2.5c-0.7,1.2-1,2.9-1,5.1c0,1.9,0.3,3.4,0.9,4.6
		c0.6,1.2,1.3,2,2.1,2.6c0.8,0.6,1.7,1,2.5,1.2C1139.3,650,1139.9,650.1,1140.5,650.1z"/>
	<path class="st0" d="M1163.6,652.7c-1.8,0-3.4-0.5-4.8-1.3c-1.4-0.9-2.4-2.2-3.2-3.8c-0.8-1.7-1.2-3.6-1.2-5.7
		c0-1.9,0.4-3.7,1.3-5.3c0.9-1.6,2.1-2.9,3.5-3.8s3.1-1.5,4.8-1.5c1.3,0,2.5,0.3,3.5,0.8c1,0.5,1.8,1.3,2.4,2.2c0.6,1,0.9,2,0.9,3.3
		c0,1-0.5,1.6-1.5,1.6h-10.5c-0.5,0-0.8,0.1-1,0.4s-0.3,0.7-0.3,1.5c0,1.6,0.3,3.1,1,4.4c0.7,1.3,1.6,2.4,2.8,3.2s2.5,1.2,3.9,1.2
		c1,0,1.9-0.2,2.7-0.6c0.8-0.4,1.5-0.9,2.2-1.7c0.1-0.2,0.2-0.3,0.3-0.3s0.2-0.1,0.3-0.1c0.3,0,0.4,0.2,0.4,0.5
		c0,0.6-0.3,1.3-0.9,2.1c-0.5,0.6-1.1,1.2-1.8,1.6c-0.7,0.5-1.5,0.8-2.3,1.1C1165.4,652.6,1164.5,652.7,1163.6,652.7z M1159,637.6
		h4.5c0.8,0,1.5,0,2.1,0c0.6,0,1.1-0.1,1.6-0.2c0.2,0,0.3-0.1,0.3-0.3s0.1-0.4,0.1-0.8c0-1-0.4-1.8-1.3-2.5c-0.8-0.7-1.9-1-3-1
		c-0.8,0-1.5,0.2-2.3,0.7s-1.4,1-1.9,1.7c-0.5,0.7-0.8,1.3-0.8,2C1158.4,637.4,1158.6,637.6,1159,637.6z"/>
	<path class="st0" d="M1193.2,652.2c-0.4,0-0.8,0-1-0.1c-0.3-0.1-0.4-0.2-0.4-0.4c0-0.2,0.1-0.4,0.4-0.5c0.3-0.1,0.7-0.3,1.3-0.4
		c1.3-0.2,2.2-0.6,2.9-1.2s1-1.5,1-2.7v-19.4c0-1.5,0-2.7-0.1-3.5c-0.1-0.8-0.2-1.4-0.3-1.7c-0.2-0.3-0.4-0.5-0.6-0.5
		c-0.5-0.1-1-0.2-1.5-0.2c-0.5,0-1.2,0-2.1,0h-2.4c-0.8,0-1.6,0.2-2.4,0.5c-0.8,0.3-1.4,0.8-1.7,1.5c-0.1,0.2-0.3,0.4-0.5,0.7
		c-0.2,0.3-0.5,0.6-0.8,0.8c-0.3,0.2-0.5,0.3-0.8,0.3c-0.1,0-0.2-0.1-0.3-0.2s-0.1-0.3-0.1-0.5c0-0.3,0.1-0.7,0.3-1
		c0.5-1,0.8-1.8,1-2.6s0.4-1.6,0.5-2.7c0.1-0.6,0.2-0.9,0.4-1c0.2-0.1,0.3-0.2,0.5-0.2c0.1,0,0.3,0.2,0.6,0.6c0.3,0.4,0.5,0.7,0.6,1
		c0.2,0.3,0.7,0.6,1.4,0.8s1.4,0.3,2.1,0.3h17.6c1.2,0,2.1-0.1,2.9-0.2c0.7-0.1,1.4-0.3,1.9-0.5c0.4-0.2,0.7-0.4,1-0.7
		c0.3-0.2,0.6-0.3,1-0.3c0.1,0,0.2,0.1,0.3,0.4c0.1,0.3,0.1,0.5,0.1,0.8c0,0.2,0,0.4-0.1,0.7s-0.1,0.5-0.1,0.7
		c-0.1,0.6-0.2,1-0.3,1.3c-0.1,0.3-0.1,0.5-0.2,0.7s0,0.5,0,1v0.6c0,0.3-0.1,0.6-0.2,1c-0.1,0.4-0.3,0.6-0.6,0.6
		c-0.2,0-0.4-0.2-0.6-0.5c-0.1-0.4-0.3-0.9-0.4-1.5c-0.1-0.7-0.5-1.3-1.2-1.7c-0.7-0.4-1.8-0.6-3.4-0.6h-5c-0.7,0-1.3,0.1-1.6,0.3
		c-0.4,0.2-0.6,0.7-0.7,1.5c-0.1,0.8-0.2,2.1-0.2,4v19.7c0,1.2,0.4,2.1,1,2.7c0.7,0.6,1.7,1,2.9,1.2c0.6,0.1,1,0.2,1.3,0.4
		c0.3,0.1,0.4,0.3,0.4,0.5c0,0.2-0.1,0.3-0.4,0.4c-0.3,0.1-0.6,0.1-1,0.1c-0.9,0-1.6,0-2.2-0.1s-1.1-0.1-1.7-0.1s-1.2,0-2,0
		c-0.8,0-1.6,0-2.2,0c-0.6,0-1.3,0.1-1.9,0.1C1194.9,652.2,1194.1,652.2,1193.2,652.2z"/>
	<path class="st0" d="M1217.9,652.1c-0.7,0-1-0.2-1-0.6c0-0.3,0.4-0.6,1.1-0.8c0.5-0.2,1-0.4,1.4-0.6c0.4-0.3,0.7-0.7,0.7-1.4v-25
		c0-0.9-0.2-1.7-0.5-2.4c-0.3-0.7-0.9-1.1-1.8-1.2c-0.3-0.1-0.5-0.3-0.5-0.7c0-0.3,0.1-0.5,0.4-0.6c0.5-0.2,1-0.3,1.7-0.5
		c0.7-0.2,1.3-0.4,2-0.7s1.3-0.5,1.8-0.7c0.1-0.1,0.2-0.1,0.3-0.1c0.1,0,0.2,0,0.3,0.1c0.1,0.1,0.1,0.2,0.1,0.3c0,0.2,0,0.5-0.1,0.9
		c-0.1,0.4-0.2,1-0.2,1.9c-0.1,0.9-0.1,2.3-0.1,4.1v8.7c0,0.5,0,0.9,0.1,1.2c0,0.2,0.1,0.5,0.3,0.7c0.5-0.4,1.2-0.8,2-1.3
		c0.8-0.5,1.7-0.9,2.6-1.3c1-0.4,2-0.5,3-0.5c1.6,0,3,0.6,4.1,1.9c1.1,1.3,1.6,2.9,1.6,4.9v10.5c0,0.7,0.2,1.2,0.6,1.5
		c0.4,0.3,0.9,0.6,1.4,0.7c0.4,0.1,0.6,0.2,0.8,0.3c0.2,0.1,0.3,0.3,0.3,0.5c0,0.4-0.3,0.6-1,0.6s-1.2,0-1.5-0.1
		c-0.4,0-0.7-0.1-1-0.1c-0.3,0-0.8,0-1.4,0c-0.6,0-1,0-1.4,0s-0.7,0.1-1,0.1c-0.4,0-0.9,0.1-1.5,0.1s-1-0.2-1-0.6
		c0-0.2,0.1-0.4,0.3-0.5c0.2-0.1,0.5-0.2,0.9-0.3c0.5-0.2,1-0.4,1.3-0.7c0.4-0.3,0.6-0.8,0.6-1.5v-10.2c0-0.8-0.2-1.6-0.7-2.3
		c-0.5-0.7-1.1-1.2-1.8-1.6c-0.7-0.4-1.4-0.6-2.2-0.6c-0.6,0-1.4,0.1-2.2,0.3c-0.8,0.2-1.5,0.5-2,0.8c-0.5,0.4-0.9,0.9-1.1,1.3
		c-0.2,0.5-0.3,1.2-0.3,2.3v10.2c0,0.7,0.2,1.1,0.6,1.4c0.4,0.3,0.8,0.5,1.3,0.6c0.4,0.1,0.6,0.2,0.8,0.3c0.2,0.1,0.3,0.3,0.3,0.5
		c0,0.4-0.3,0.6-1,0.6s-1.2,0-1.5-0.1s-0.6-0.1-1-0.1c-0.3,0-0.8,0-1.3,0c-0.6,0-1,0-1.4,0s-0.7,0.1-1.1,0.1
		C1219.1,652.1,1218.6,652.1,1217.9,652.1z"/>
	<path class="st0" d="M1244.2,652.1c-0.3,0-0.6,0-0.8-0.1c-0.2-0.1-0.3-0.2-0.3-0.4c0-0.3,0.1-0.4,0.3-0.5s0.5-0.2,0.8-0.3
		c0.6-0.2,1.1-0.4,1.4-0.7c0.3-0.3,0.5-0.7,0.5-1.2v-10.8c0-0.9-0.1-1.7-0.4-2.4c-0.3-0.7-0.8-1.1-1.6-1.3c-0.1,0-0.3-0.1-0.4-0.3
		c-0.1-0.1-0.1-0.3-0.1-0.4c0-0.3,0.1-0.5,0.5-0.6c0.9-0.3,1.8-0.7,2.7-1.2c1-0.5,1.7-0.9,2.2-1.3c0.2-0.1,0.4-0.2,0.5-0.3
		c0.1,0,0.2-0.1,0.3-0.1c0.2,0,0.3,0.1,0.3,0.3c0,0.1,0,0.4,0,0.8c0,0.4,0,0.9,0,1.4c0,0.5,0,1.1-0.1,1.6c0,0.1,0,0.1,0.1,0.1
		c0.5-0.7,1.1-1.3,1.8-1.8c0.6-0.5,1.3-0.9,2-1.2c0.7-0.3,1.3-0.5,2-0.5c0.7,0,1.3,0.2,1.7,0.5c0.4,0.3,0.7,0.7,0.7,1.2
		c0,0.3-0.1,0.7-0.3,1.1c-0.2,0.4-0.4,0.8-0.7,1s-0.6,0.5-1,0.5c-0.2,0-0.4,0-0.7-0.1c-0.2-0.1-0.5-0.2-0.8-0.3
		c-0.3-0.1-0.5-0.2-0.8-0.3s-0.5-0.2-0.8-0.2c-0.8,0-1.6,0.3-2.3,0.9c-0.8,0.6-1.1,1.7-1.1,3.3v10.1c0,0.4,0.2,0.8,0.7,1.1
		c0.5,0.3,1.1,0.6,2,0.8c0.4,0.1,0.6,0.2,0.8,0.3c0.2,0.1,0.3,0.3,0.3,0.5c0,0.4-0.3,0.6-1,0.6c-1,0-1.8,0-2.3-0.1
		c-0.5-0.1-1.2-0.1-2.1-0.1c-0.6,0-1,0-1.4,0s-0.7,0.1-1.1,0.1C1245.4,652.1,1244.8,652.1,1244.2,652.1z"/>
	<path class="st0" d="M1270.1,652.7c-1.9,0-3.5-0.4-5-1.3c-1.5-0.9-2.7-2.1-3.6-3.6c-0.9-1.5-1.3-3.2-1.3-5.2c0-1.4,0.3-2.8,0.8-4.1
		c0.5-1.3,1.3-2.5,2.3-3.6c1-1.1,2.2-2,3.5-2.6c1.3-0.7,2.8-1,4.3-1c1.9,0,3.7,0.5,5.2,1.4c1.5,0.9,2.8,2.2,3.7,3.7
		c0.9,1.5,1.4,3.2,1.4,5c0,1.9-0.4,3.8-1.3,5.5c-0.8,1.7-2.1,3.1-3.8,4.2C1274.7,652.1,1272.6,652.7,1270.1,652.7z M1271.2,651.2
		c1.1,0,2.2-0.2,3-0.7c0.9-0.4,1.6-1.1,2.1-2.1c0.4-0.8,0.7-1.7,0.8-2.8c0.1-1.1,0.2-2.1,0.2-3.1c0-1.6-0.3-3.1-0.9-4.6
		c-0.6-1.5-1.4-2.7-2.5-3.6c-1-1-2.3-1.4-3.7-1.4c-0.9,0-1.7,0.1-2.4,0.4s-1.4,0.8-2,1.6c-0.7,0.8-1.1,1.9-1.3,3.1
		c-0.2,1.2-0.3,2.4-0.3,3.6c0,1.6,0.3,3.2,0.9,4.7c0.6,1.5,1.4,2.7,2.5,3.6C1268.7,650.7,1269.8,651.2,1271.2,651.2z"/>
	<path class="st0" d="M1301.5,652.9c-0.2,0-0.3-0.1-0.3-0.4c0-0.3,0-0.8,0.1-1.5c0.1-0.7,0.1-1.2,0.1-1.6c0-0.1,0-0.1,0-0.2
		c0-0.1,0-0.1,0-0.1c-1.3,1.3-2.6,2.2-3.9,2.7c-1.3,0.5-2.8,0.8-4.3,0.8c-1.1,0-2-0.2-2.9-0.7c-0.9-0.5-1.5-1.1-2-2s-0.8-2-0.8-3.3
		v-10.2c0-0.7-0.2-1.3-0.5-1.8c-0.3-0.4-0.9-0.8-1.7-1.1c-0.2-0.1-0.3-0.2-0.4-0.3c-0.1-0.1-0.2-0.3-0.2-0.5c0-0.3,0.1-0.5,0.2-0.6
		c0.2-0.1,0.3-0.2,0.5-0.2c1.1-0.1,2-0.2,2.6-0.3c0.6-0.1,1.4-0.3,2.3-0.5c0.1,0,0.2,0,0.2,0s0.1,0,0.2,0c0.4,0,0.5,0.2,0.5,0.7
		c-0.1,0.8-0.2,1.4-0.2,1.9c0,0.5-0.1,1.2-0.1,1.9v9.8c0,0.8,0.2,1.5,0.6,2.2c0.4,0.7,0.9,1.2,1.6,1.7c0.7,0.4,1.3,0.7,2,0.7
		c0.9,0,1.6-0.1,2.3-0.2c0.7-0.1,1.3-0.4,1.9-0.8c0.4-0.3,0.8-0.7,1.4-1.3c0.6-0.6,0.9-1.4,0.9-2.4v-9.2c0-0.7-0.2-1.2-0.6-1.6
		c-0.4-0.3-0.9-0.6-1.4-0.7c-0.5-0.1-1-0.2-1.3-0.2c-0.3,0-0.5-0.1-0.8-0.2c-0.2-0.1-0.3-0.3-0.3-0.7c0-0.3,0.1-0.5,0.3-0.6
		c0.2-0.1,0.5-0.1,0.7-0.1c1,0,1.9-0.1,2.6-0.1c0.7-0.1,1.3-0.1,1.8-0.3c0.6-0.1,1.1-0.3,1.7-0.4c0.1,0,0.1-0.1,0.3-0.1
		c0.1,0,0.2,0,0.3,0c0.4,0,0.6,0.2,0.6,0.5c0,0,0,0.1,0,0.2c0,0.1,0,0.2-0.1,0.3s-0.1,0.4-0.1,0.8c0,0.5-0.1,1-0.2,1.5
		c0,0.5-0.1,0.9-0.1,1.2v11.5c0,0.9,0.1,1.5,0.3,1.9c0.2,0.4,0.4,0.6,0.6,0.6c0.3,0,0.7,0,1.2-0.1s0.9-0.1,1.1-0.1
		c0.2,0,0.3,0,0.5,0.1c0.2,0.1,0.3,0.3,0.3,0.5c0,0.3-0.1,0.4-0.2,0.5c-0.1,0.1-0.3,0.1-0.5,0.2c-1.3,0.2-2.4,0.4-3.4,0.8
		c-0.9,0.3-1.8,0.6-2.5,1c-0.1,0-0.3,0.1-0.5,0.2C1301.8,652.9,1301.6,652.9,1301.5,652.9z"/>
	<path class="st0" d="M1319.3,666.5c-2.8,0-5.1-0.5-6.7-1.6c-1.7-1.1-2.5-2.5-2.5-4.4c0-0.9,0.1-1.6,0.4-2.2
		c0.3-0.6,0.7-1.1,1.3-1.5c0.5-0.4,1.1-0.9,1.9-1.5c0.8-0.6,1.6-1.3,2.4-1.9l2.1,0.1c-1.6,1-2.7,2-3.3,2.9c-0.6,0.9-1,2.1-1,3.4
		c0,1.3,0.6,2.5,1.8,3.4c1.2,0.9,2.6,1.4,4.4,1.4c2,0,3.5-0.5,4.8-1.3c0.8-0.6,1.5-1.5,2-2.5c0.5-1,0.7-2.1,0.7-3.2
		c0-0.7-0.3-1.3-0.8-1.8c-0.5-0.5-1.3-0.9-2.4-1.2c-1.1-0.3-2.5-0.5-4.3-0.6c-3.1-0.2-5.3-0.6-6.5-1.3c-1.2-0.6-1.8-1.5-1.8-2.8
		c0-0.3,0.1-0.6,0.3-0.9c0.2-0.3,0.5-0.6,0.9-0.9c0.8-0.6,1.3-1,1.7-1.3s0.6-0.5,0.8-0.7c0.2-0.2,0.4-0.5,0.5-0.8l1.7,0.8
		c-0.7,0.3-1.4,0.6-1.9,1.1s-0.8,0.9-0.8,1.2c0,0.5,0.3,0.9,0.8,1.2c0.5,0.3,1.2,0.6,2.2,0.8c1,0.2,2.2,0.4,3.5,0.5
		c3.1,0.2,5.4,0.7,6.9,1.5s2.3,2,2.3,3.5c0,1.3-0.3,2.6-1,3.8c-0.6,1.3-1.5,2.4-2.6,3.4s-2.3,1.9-3.6,2.5
		C1322,666.2,1320.6,666.5,1319.3,666.5z M1319.6,646.7c-1.4,0-2.7-0.4-3.9-1c-1.2-0.7-2.2-1.6-3-2.8s-1.2-2.4-1.2-3.8
		c0-1.6,0.4-2.9,1.2-4.1c0.8-1.2,1.9-2.1,3.2-2.8c1.3-0.7,2.8-1,4.3-1c1,0,1.8,0.1,2.5,0.4s1.4,0.5,2.1,0.7c0.8,0.2,1.4,0.4,1.9,0.4
		c0.5,0,1,0.1,1.5,0.1c0.4,0,0.9,0,1.5-0.1c0.6,0,1-0.1,1.3-0.1c0.4,0,0.6,0.3,0.6,0.8c0,0.3-0.2,0.6-0.5,1
		c-0.2,0.2-0.3,0.3-0.4,0.3h-1.4c-0.9,0-1.4,0.1-1.5,0.4c0,0.1-0.1,0.3-0.1,0.6s-0.1,0.5-0.1,0.8c0,0.3,0,0.6,0,0.9
		c0,1.7-0.4,3.3-1.1,4.7c-0.7,1.4-1.7,2.6-2.9,3.5S1321,646.7,1319.6,646.7z M1319.9,644.9c1.3,0,2.3-0.6,3.2-1.9
		c0.8-1.3,1.3-2.9,1.3-4.8c0-1-0.2-1.9-0.7-2.7c-0.5-0.9-1-1.5-1.8-2.1c-0.7-0.5-1.5-0.8-2.3-0.8c-0.8,0-1.5,0.3-2.2,0.8
		c-0.7,0.5-1.2,1.3-1.7,2.1s-0.6,1.8-0.6,2.8c0,1.2,0.2,2.2,0.7,3.2c0.4,1,1,1.8,1.8,2.4C1318.2,644.6,1319,644.9,1319.9,644.9z"/>
	<path class="st0" d="M1333.2,652.1c-0.7,0-1-0.2-1-0.6c0-0.3,0.4-0.6,1.1-0.8c0.5-0.2,1-0.4,1.4-0.6c0.4-0.3,0.7-0.7,0.7-1.4v-25
		c0-0.9-0.2-1.7-0.5-2.4c-0.3-0.7-0.9-1.1-1.8-1.2c-0.3-0.1-0.5-0.3-0.5-0.7c0-0.3,0.1-0.5,0.4-0.6c0.5-0.2,1-0.3,1.7-0.5
		c0.7-0.2,1.3-0.4,2-0.7s1.3-0.5,1.8-0.7c0.1-0.1,0.2-0.1,0.3-0.1c0.1,0,0.2,0,0.3,0.1c0.1,0.1,0.1,0.2,0.1,0.3c0,0.2,0,0.5-0.1,0.9
		c-0.1,0.4-0.2,1-0.2,1.9c-0.1,0.9-0.1,2.3-0.1,4.1v8.7c0,0.5,0,0.9,0.1,1.2c0,0.2,0.1,0.5,0.3,0.7c0.5-0.4,1.2-0.8,2-1.3
		c0.8-0.5,1.7-0.9,2.6-1.3c1-0.4,2-0.5,3-0.5c1.6,0,3,0.6,4.1,1.9c1.1,1.3,1.6,2.9,1.6,4.9v10.5c0,0.7,0.2,1.2,0.6,1.5
		c0.4,0.3,0.9,0.6,1.4,0.7c0.4,0.1,0.6,0.2,0.8,0.3c0.2,0.1,0.3,0.3,0.3,0.5c0,0.4-0.3,0.6-1,0.6s-1.2,0-1.5-0.1
		c-0.4,0-0.7-0.1-1-0.1c-0.3,0-0.8,0-1.4,0c-0.6,0-1,0-1.4,0s-0.7,0.1-1,0.1c-0.4,0-0.9,0.1-1.5,0.1s-1-0.2-1-0.6
		c0-0.2,0.1-0.4,0.3-0.5c0.2-0.1,0.5-0.2,0.9-0.3c0.5-0.2,1-0.4,1.3-0.7c0.4-0.3,0.6-0.8,0.6-1.5v-10.2c0-0.8-0.2-1.6-0.7-2.3
		c-0.5-0.7-1.1-1.2-1.8-1.6c-0.7-0.4-1.4-0.6-2.2-0.6c-0.6,0-1.4,0.1-2.2,0.3c-0.8,0.2-1.5,0.5-2,0.8c-0.5,0.4-0.9,0.9-1.1,1.3
		c-0.2,0.5-0.3,1.2-0.3,2.3v10.2c0,0.7,0.2,1.1,0.6,1.4c0.4,0.3,0.8,0.5,1.3,0.6c0.4,0.1,0.6,0.2,0.8,0.3c0.2,0.1,0.3,0.3,0.3,0.5
		c0,0.4-0.3,0.6-1,0.6s-1.2,0-1.5-0.1s-0.6-0.1-1-0.1c-0.3,0-0.8,0-1.3,0c-0.6,0-1,0-1.4,0s-0.7,0.1-1.1,0.1
		C1334.4,652.1,1333.9,652.1,1333.2,652.1z"/>
	<path class="st0" d="M1368.7,652.7c-1.9,0-3.5-0.4-5-1.3c-1.5-0.9-2.7-2.1-3.6-3.6c-0.9-1.5-1.3-3.2-1.3-5.2c0-1.4,0.3-2.8,0.8-4.1
		c0.5-1.3,1.3-2.5,2.3-3.6c1-1.1,2.2-2,3.5-2.6c1.3-0.7,2.8-1,4.3-1c1.9,0,3.7,0.5,5.2,1.4c1.5,0.9,2.8,2.2,3.7,3.7
		c0.9,1.5,1.4,3.2,1.4,5c0,1.9-0.4,3.8-1.3,5.5c-0.8,1.7-2.1,3.1-3.8,4.2C1373.3,652.1,1371.2,652.7,1368.7,652.7z M1369.8,651.2
		c1.1,0,2.2-0.2,3-0.7c0.9-0.4,1.6-1.1,2.1-2.1c0.4-0.8,0.7-1.7,0.8-2.8c0.1-1.1,0.2-2.1,0.2-3.1c0-1.6-0.3-3.1-0.9-4.6
		c-0.6-1.5-1.4-2.7-2.5-3.6c-1-1-2.3-1.4-3.7-1.4c-0.9,0-1.7,0.1-2.4,0.4s-1.4,0.8-2,1.6c-0.7,0.8-1.1,1.9-1.3,3.1
		c-0.2,1.2-0.3,2.4-0.3,3.6c0,1.6,0.3,3.2,0.9,4.7c0.6,1.5,1.4,2.7,2.5,3.6C1367.3,650.7,1368.4,651.2,1369.8,651.2z"/>
	<path class="st0" d="M1400.1,652.9c-0.2,0-0.3-0.1-0.3-0.4c0-0.3,0-0.8,0.1-1.5c0.1-0.7,0.1-1.2,0.1-1.6c0-0.1,0-0.1,0-0.2
		c0-0.1,0-0.1,0-0.1c-1.3,1.3-2.6,2.2-3.9,2.7c-1.3,0.5-2.8,0.8-4.3,0.8c-1.1,0-2-0.2-2.9-0.7c-0.9-0.5-1.5-1.1-2-2s-0.8-2-0.8-3.3
		v-10.2c0-0.7-0.2-1.3-0.5-1.8c-0.3-0.4-0.9-0.8-1.7-1.1c-0.2-0.1-0.3-0.2-0.4-0.3c-0.1-0.1-0.2-0.3-0.2-0.5c0-0.3,0.1-0.5,0.2-0.6
		c0.2-0.1,0.3-0.2,0.5-0.2c1.1-0.1,2-0.2,2.6-0.3c0.6-0.1,1.4-0.3,2.3-0.5c0.1,0,0.2,0,0.2,0s0.1,0,0.2,0c0.4,0,0.5,0.2,0.5,0.7
		c-0.1,0.8-0.2,1.4-0.2,1.9c0,0.5-0.1,1.2-0.1,1.9v9.8c0,0.8,0.2,1.5,0.6,2.2c0.4,0.7,0.9,1.2,1.6,1.7c0.7,0.4,1.3,0.7,2,0.7
		c0.9,0,1.6-0.1,2.3-0.2c0.7-0.1,1.3-0.4,1.9-0.8c0.4-0.3,0.8-0.7,1.4-1.3c0.6-0.6,0.9-1.4,0.9-2.4v-9.2c0-0.7-0.2-1.2-0.6-1.6
		c-0.4-0.3-0.9-0.6-1.4-0.7c-0.5-0.1-1-0.2-1.3-0.2c-0.3,0-0.5-0.1-0.8-0.2c-0.2-0.1-0.3-0.3-0.3-0.7c0-0.3,0.1-0.5,0.3-0.6
		c0.2-0.1,0.5-0.1,0.7-0.1c1,0,1.9-0.1,2.6-0.1c0.7-0.1,1.3-0.1,1.8-0.3c0.6-0.1,1.1-0.3,1.7-0.4c0.1,0,0.1-0.1,0.3-0.1
		c0.1,0,0.2,0,0.3,0c0.4,0,0.6,0.2,0.6,0.5c0,0,0,0.1,0,0.2c0,0.1,0,0.2-0.1,0.3s-0.1,0.4-0.1,0.8c0,0.5-0.1,1-0.2,1.5
		c0,0.5-0.1,0.9-0.1,1.2v11.5c0,0.9,0.1,1.5,0.3,1.9c0.2,0.4,0.4,0.6,0.6,0.6c0.3,0,0.7,0,1.2-0.1s0.9-0.1,1.1-0.1
		c0.2,0,0.3,0,0.5,0.1c0.2,0.1,0.3,0.3,0.3,0.5c0,0.3-0.1,0.4-0.2,0.5c-0.1,0.1-0.3,0.1-0.5,0.2c-1.3,0.2-2.4,0.4-3.4,0.8
		c-0.9,0.3-1.8,0.6-2.5,1c-0.1,0-0.3,0.1-0.5,0.2C1400.4,652.9,1400.2,652.9,1400.1,652.9z"/>
	<path class="st0" d="M1417.6,652.7c-1.6,0-2.9-0.5-3.8-1.5c-0.9-1-1.4-2.5-1.4-4.5v-11.6c0-0.3-0.1-0.5-0.3-0.6
		c-0.2-0.1-0.6-0.2-1.3-0.2h-0.3c-0.2,0-0.3-0.1-0.4-0.3c-0.1-0.2-0.2-0.4-0.2-0.7c0-0.1,0-0.2,0.2-0.3c0.1-0.1,0.2-0.2,0.2-0.3
		c0.7-0.5,1.3-0.9,1.8-1.4s1-0.9,1.5-1.4s0.8-0.9,1.1-1.2c0.2-0.2,0.3-0.3,0.4-0.4c0.1-0.1,0.3-0.2,0.4-0.2c0.2,0,0.3,0,0.5,0.1
		c0.2,0.1,0.2,0.2,0.2,0.5l-0.3,2.3c0,0.4,0,0.6,0.3,0.8c0.2,0.1,0.5,0.2,1,0.2h5.7c0.1,0,0.3,0.1,0.3,0.3c0.1,0.2,0.2,0.5,0.2,0.8
		c0,0.3,0,0.6-0.2,0.9c-0.1,0.3-0.2,0.4-0.3,0.4h-5c-0.8,0-1.4,0.1-1.6,0.2c-0.3,0.1-0.4,0.5-0.4,1.2v9.9c0,1.3,0.3,2.4,0.8,3.1
		c0.6,0.8,1.4,1.2,2.5,1.2c1,0,1.7-0.1,2.3-0.2c0.5-0.1,1-0.4,1.5-0.7c0.1-0.1,0.1-0.1,0.2-0.1c0.1,0,0.2,0.1,0.3,0.2
		c0.1,0.2,0.1,0.3,0.1,0.5s-0.3,0.5-0.8,1c-0.5,0.5-1.3,1-2.1,1.4C1419.6,652.5,1418.6,652.7,1417.6,652.7z"/>
	<path class="st0" d="M1444.5,652.2c-0.4,0-0.8,0-1-0.1c-0.3-0.1-0.4-0.2-0.4-0.4c0-0.2,0.1-0.4,0.4-0.5c0.3-0.1,0.7-0.3,1.3-0.4
		c1.3-0.2,2.2-0.6,2.9-1.2s1-1.5,1-2.7v-19.4c0-1.5,0-2.7-0.1-3.5c-0.1-0.8-0.2-1.4-0.3-1.7c-0.2-0.3-0.4-0.5-0.6-0.5
		c-0.5-0.1-1-0.2-1.5-0.2c-0.5,0-1.2,0-2.1,0h-2.4c-0.8,0-1.6,0.2-2.4,0.5c-0.8,0.3-1.4,0.8-1.7,1.5c-0.1,0.2-0.3,0.4-0.5,0.7
		c-0.2,0.3-0.5,0.6-0.8,0.8c-0.3,0.2-0.5,0.3-0.8,0.3c-0.1,0-0.2-0.1-0.3-0.2s-0.1-0.3-0.1-0.5c0-0.3,0.1-0.7,0.3-1
		c0.5-1,0.8-1.8,1-2.6s0.4-1.6,0.5-2.7c0.1-0.6,0.2-0.9,0.4-1c0.2-0.1,0.3-0.2,0.5-0.2c0.1,0,0.3,0.2,0.6,0.6c0.3,0.4,0.5,0.7,0.6,1
		c0.2,0.3,0.7,0.6,1.4,0.8s1.4,0.3,2.1,0.3h17.6c1.2,0,2.1-0.1,2.9-0.2c0.7-0.1,1.4-0.3,1.9-0.5c0.4-0.2,0.7-0.4,1-0.7
		c0.3-0.2,0.6-0.3,1-0.3c0.1,0,0.2,0.1,0.3,0.4c0.1,0.3,0.1,0.5,0.1,0.8c0,0.2,0,0.4-0.1,0.7s-0.1,0.5-0.1,0.7
		c-0.1,0.6-0.2,1-0.3,1.3c-0.1,0.3-0.1,0.5-0.2,0.7s0,0.5,0,1v0.6c0,0.3-0.1,0.6-0.2,1c-0.1,0.4-0.3,0.6-0.6,0.6
		c-0.2,0-0.4-0.2-0.6-0.5c-0.1-0.4-0.3-0.9-0.4-1.5c-0.1-0.7-0.5-1.3-1.2-1.7c-0.7-0.4-1.8-0.6-3.4-0.6h-5c-0.7,0-1.3,0.1-1.6,0.3
		c-0.4,0.2-0.6,0.7-0.7,1.5c-0.1,0.8-0.2,2.1-0.2,4v19.7c0,1.2,0.4,2.1,1,2.7c0.7,0.6,1.7,1,2.9,1.2c0.6,0.1,1,0.2,1.3,0.4
		c0.3,0.1,0.4,0.3,0.4,0.5c0,0.2-0.1,0.3-0.4,0.4c-0.3,0.1-0.6,0.1-1,0.1c-0.9,0-1.6,0-2.2-0.1s-1.1-0.1-1.7-0.1s-1.2,0-2,0
		c-0.8,0-1.6,0-2.2,0c-0.6,0-1.3,0.1-1.9,0.1C1446.2,652.2,1445.4,652.2,1444.5,652.2z"/>
	<path class="st0" d="M1469.3,652.1c-0.7,0-1-0.2-1-0.6c0-0.3,0.4-0.6,1.1-0.8c0.5-0.2,1-0.4,1.4-0.6c0.4-0.3,0.7-0.7,0.7-1.4v-25
		c0-0.9-0.2-1.7-0.5-2.4c-0.3-0.7-0.9-1.1-1.8-1.2c-0.3-0.1-0.5-0.3-0.5-0.7c0-0.3,0.1-0.5,0.4-0.6c0.5-0.2,1-0.3,1.7-0.5
		c0.7-0.2,1.3-0.4,2-0.7s1.3-0.5,1.8-0.7c0.1-0.1,0.2-0.1,0.3-0.1c0.1,0,0.2,0,0.3,0.1c0.1,0.1,0.1,0.2,0.1,0.3c0,0.2,0,0.5-0.1,0.9
		c-0.1,0.4-0.2,1-0.2,1.9c-0.1,0.9-0.1,2.3-0.1,4.1v8.7c0,0.5,0,0.9,0.1,1.2c0,0.2,0.1,0.5,0.3,0.7c0.5-0.4,1.2-0.8,2-1.3
		c0.8-0.5,1.7-0.9,2.6-1.3c1-0.4,2-0.5,3-0.5c1.6,0,3,0.6,4.1,1.9c1.1,1.3,1.6,2.9,1.6,4.9v10.5c0,0.7,0.2,1.2,0.6,1.5
		c0.4,0.3,0.9,0.6,1.4,0.7c0.4,0.1,0.6,0.2,0.8,0.3c0.2,0.1,0.3,0.3,0.3,0.5c0,0.4-0.3,0.6-1,0.6s-1.2,0-1.5-0.1
		c-0.4,0-0.7-0.1-1-0.1c-0.3,0-0.8,0-1.4,0c-0.6,0-1,0-1.4,0s-0.7,0.1-1,0.1c-0.4,0-0.9,0.1-1.5,0.1s-1-0.2-1-0.6
		c0-0.2,0.1-0.4,0.3-0.5c0.2-0.1,0.5-0.2,0.9-0.3c0.5-0.2,1-0.4,1.3-0.7c0.4-0.3,0.6-0.8,0.6-1.5v-10.2c0-0.8-0.2-1.6-0.7-2.3
		c-0.5-0.7-1.1-1.2-1.8-1.6c-0.7-0.4-1.4-0.6-2.2-0.6c-0.6,0-1.4,0.1-2.2,0.3c-0.8,0.2-1.5,0.5-2,0.8c-0.5,0.4-0.9,0.9-1.1,1.3
		c-0.2,0.5-0.3,1.2-0.3,2.3v10.2c0,0.7,0.2,1.1,0.6,1.4c0.4,0.3,0.8,0.5,1.3,0.6c0.4,0.1,0.6,0.2,0.8,0.3c0.2,0.1,0.3,0.3,0.3,0.5
		c0,0.4-0.3,0.6-1,0.6s-1.2,0-1.5-0.1s-0.6-0.1-1-0.1c-0.3,0-0.8,0-1.3,0c-0.6,0-1,0-1.4,0s-0.7,0.1-1.1,0.1
		C1470.5,652.1,1469.9,652.1,1469.3,652.1z"/>
	<path class="st0" d="M1503.7,652.7c-1.8,0-3.4-0.5-4.8-1.3c-1.4-0.9-2.4-2.2-3.2-3.8c-0.8-1.7-1.2-3.6-1.2-5.7
		c0-1.9,0.4-3.7,1.3-5.3c0.9-1.6,2.1-2.9,3.5-3.8s3.1-1.5,4.8-1.5c1.3,0,2.5,0.3,3.5,0.8c1,0.5,1.8,1.3,2.4,2.2c0.6,1,0.9,2,0.9,3.3
		c0,1-0.5,1.6-1.5,1.6H1499c-0.5,0-0.8,0.1-1,0.4s-0.3,0.7-0.3,1.5c0,1.6,0.3,3.1,1,4.4c0.7,1.3,1.6,2.4,2.8,3.2s2.5,1.2,3.9,1.2
		c1,0,1.9-0.2,2.7-0.6c0.8-0.4,1.5-0.9,2.2-1.7c0.1-0.2,0.2-0.3,0.3-0.3s0.2-0.1,0.3-0.1c0.3,0,0.4,0.2,0.4,0.5
		c0,0.6-0.3,1.3-0.9,2.1c-0.5,0.6-1.1,1.2-1.8,1.6c-0.7,0.5-1.5,0.8-2.3,1.1C1505.5,652.6,1504.6,652.7,1503.7,652.7z M1499.1,637.6
		h4.5c0.8,0,1.5,0,2.1,0c0.6,0,1.1-0.1,1.6-0.2c0.2,0,0.3-0.1,0.3-0.3s0.1-0.4,0.1-0.8c0-1-0.4-1.8-1.3-2.5c-0.8-0.7-1.9-1-3-1
		c-0.8,0-1.5,0.2-2.3,0.7s-1.4,1-1.9,1.7c-0.5,0.7-0.8,1.3-0.8,2C1498.5,637.4,1498.7,637.6,1499.1,637.6z"/>
	<path class="st0" d="M1525,652.2c-0.4,0-0.8,0-1.1-0.1c-0.3-0.1-0.4-0.2-0.4-0.4c0-0.2,0.1-0.4,0.4-0.5s0.7-0.3,1.3-0.4
		c0.8-0.2,1.5-0.6,2.1-1.2c0.5-0.6,0.9-1.5,1-2.7c0.4-3,0.8-5.9,1-8.6s0.5-5.2,0.7-7.4c0.2-2.2,0.3-4,0.3-5.4c0-0.3,0-0.5,0-0.8
		s0-0.6,0-0.8c0-0.3-0.1-0.5-0.2-0.8c-0.1-0.3-0.3-0.6-0.6-0.8c-0.6-0.5-1.2-0.8-1.8-1c-0.6-0.2-1.2-0.3-2-0.5
		c-0.3-0.1-0.6-0.2-0.8-0.4c-0.2-0.2-0.3-0.4-0.3-0.6c0-0.3,0.2-0.4,0.5-0.5c0.3,0,0.7-0.1,1.2-0.1c0.3,0,0.8,0,1.5,0
		c0.7,0,1.4,0.1,2.2,0.2c0.8,0.1,1.5,0.1,2.2,0.1c0.7,0,1.2,0.1,1.5,0.1c0.2,0,0.4,0.1,0.6,0.2c0.2,0.1,0.3,0.3,0.3,0.6
		c0.2,0.6,0.3,1.2,0.5,1.9c0.2,0.7,0.4,1.3,0.6,2l7.9,20c0.1,0.2,0.3,0.4,0.5,0.4c0.3,0,0.5,0,0.6-0.3l9.8-20.5
		c0.2-0.6,0.3-1.2,0.5-1.9c0.2-0.7,0.3-1.3,0.4-1.8c0.1-0.4,0.3-0.7,0.5-0.7h1.8c1,0,2.1-0.1,3.2-0.2c1.1-0.1,2-0.2,2.5-0.2
		c0.2,0,0.4,0,0.6,0.1c0.3,0,0.4,0.2,0.4,0.4s-0.1,0.4-0.3,0.5c-0.2,0.1-0.5,0.3-1,0.5c-0.4,0.2-0.9,0.3-1.5,0.5
		c-0.5,0.2-1,0.4-1.5,0.6c-0.3,0.1-0.6,0.4-0.9,0.7c-0.2,0.3-0.3,0.7-0.3,1c0,2.3,0,4.5,0.1,6.6c0.1,2,0.2,4,0.3,5.9
		c0.1,1.9,0.2,3.7,0.3,5.6c0.1,1.8,0.3,3.7,0.3,5.6c0.1,1,0.4,1.8,1,2.4c0.6,0.5,1.5,0.9,2.8,1.2c0.6,0.1,1,0.2,1.3,0.4
		s0.4,0.3,0.4,0.5c0,0.2-0.1,0.3-0.4,0.4c-0.3,0.1-0.6,0.1-1,0.1c-0.9,0-1.6,0-2.2-0.1c-0.6,0-1.1-0.1-1.7-0.1c-0.5,0-1.2,0-2,0
		c-0.7,0-1.2,0-1.7,0c-0.5,0-0.9,0.1-1.5,0.1c-0.5,0-1.2,0.1-2.1,0.1c-0.4,0-0.8,0-1-0.1c-0.3-0.1-0.4-0.2-0.4-0.4
		c0-0.2,0.1-0.4,0.4-0.6c0.3-0.2,0.7-0.3,1.3-0.3c1-0.1,1.6-0.5,2-1c0.4-0.6,0.5-1.4,0.5-2.6c0-2.4,0-4.6-0.1-6.5
		c0-1.9-0.1-3.8-0.2-5.7c-0.1-1.9-0.2-3.9-0.3-6.2c0-0.4-0.1-0.5-0.3-0.5s-0.3,0.2-0.5,0.5l-11.5,23.5c-0.1,0.2-0.2,0.3-0.5,0.3
		c-0.2,0-0.4-0.1-0.4-0.3c-1.3-3.9-2.7-7.7-4.2-11.5c-1.5-3.8-3.2-7.9-5-12.2c-0.1-0.2-0.2-0.3-0.4-0.3s-0.3,0.1-0.3,0.3
		c-0.3,2.3-0.6,4.5-0.8,6.4s-0.4,3.9-0.6,5.8c-0.1,1.9-0.2,4-0.2,6.3c0,0.9,0.3,1.7,0.8,2.5c0.6,0.8,1.4,1.2,2.4,1.4
		c0.6,0.1,1,0.2,1.3,0.4c0.3,0.1,0.4,0.3,0.4,0.5c0,0.2-0.1,0.3-0.4,0.4c-0.3,0.1-0.6,0.1-1,0.1c-0.9,0-1.6,0-2-0.1
		s-0.8-0.1-1.2-0.1c-0.3,0-0.8,0-1.5,0c-0.6,0-1.1,0-1.4,0s-0.7,0.1-1.1,0.1C1526.5,652.2,1525.9,652.2,1525,652.2z"/>
	<path class="st0" d="M1572.5,652.7c-0.6,0-1.2-0.2-1.8-0.7c-0.6-0.5-1.1-1-1.6-1.7c-0.4-0.7-0.6-1.3-0.6-1.9c0-1.1,0.3-1.9,0.9-2.5
		c0.6-0.6,1.5-1.2,2.7-1.7l5.1-2.1c0.7-0.3,1.1-0.5,1.2-0.7c0.1-0.2,0.2-0.6,0.2-1.3l0.1-3.2c0-0.9-0.2-1.6-0.7-2.3
		c-0.5-0.6-1.3-1-2.2-1c-0.5,0-1,0.1-1.5,0.3c-0.5,0.2-0.9,0.4-1.3,0.7c-0.2,0.1-0.3,0.3-0.4,0.6c-0.1,0.3-0.1,0.5-0.1,0.8
		c0,0.1,0,0.3,0,0.5c0,0.2,0,0.3,0,0.5c0,0.2-0.2,0.4-0.6,0.7c-0.4,0.3-0.9,0.5-1.4,0.8c-0.5,0.2-0.9,0.3-1.3,0.3
		c-0.2,0-0.3,0-0.4-0.1c-0.1-0.1-0.2-0.2-0.2-0.3c0-0.5,0.2-1.1,0.5-1.7c0.3-0.6,0.8-1.2,1.5-1.7c0.8-0.7,1.6-1.3,2.5-1.8
		s1.8-1,2.7-1.3c0.9-0.3,1.6-0.5,2.3-0.5c1.2,0,2.2,0.4,3,1.3c0.8,0.8,1.2,1.9,1.1,3.2l-0.3,12c0,0.7,0.1,1.3,0.5,1.7
		c0.3,0.4,0.8,0.6,1.3,0.6c0.8,0,1.5-0.2,1.9-0.5c0.2-0.2,0.3-0.3,0.4-0.3c0.2,0,0.3,0,0.4,0.2c0.1,0.1,0.2,0.2,0.2,0.4
		c0,0.4-0.2,0.7-0.6,1.1c-0.5,0.5-1.1,1-1.7,1.3c-0.6,0.3-1.2,0.5-1.7,0.5c-1.5,0-2.8-0.9-3.7-2.6h-0.2c-1.1,0.9-2.1,1.6-3.1,2
		C1574.6,652.5,1573.5,652.7,1572.5,652.7z M1574.8,650.3c0.7,0,1.2-0.1,1.7-0.3c0.5-0.2,0.9-0.5,1.3-0.9c0.2-0.2,0.3-0.4,0.4-0.7
		c0.1-0.3,0.2-0.7,0.2-1.4l0.1-2.5c0-0.4,0-0.6-0.1-0.8c-0.1-0.2-0.2-0.3-0.4-0.3c-0.1,0-0.2,0-0.4,0c-0.2,0-0.4,0.1-0.6,0.2
		c-1.8,0.6-3,1.3-3.7,2c-0.7,0.7-1,1.3-1,1.9c0,0.9,0.3,1.5,0.8,2C1573.7,650.1,1574.2,650.3,1574.8,650.3z"/>
	<path class="st0" d="M1593.8,652.7c-1,0-2-0.2-2.9-0.5c-0.9-0.3-1.7-0.8-2.3-1.3c-0.2-0.4-0.3-1-0.4-1.9c-0.1-0.9-0.1-1.6-0.2-2.1
		c0-0.3,0.2-0.5,0.6-0.5c0.1,0,0.3,0,0.4,0.1c0.1,0,0.2,0.1,0.2,0.3c0.4,1.6,1.1,2.8,2.1,3.5c0.9,0.7,1.9,1,2.9,1c1,0,1.8-0.3,2.5-1
		c0.7-0.7,1-1.5,1-2.4c0-0.9-0.3-1.7-0.9-2.3s-1.7-1.4-3.2-2.4c-1.1-0.7-2-1.4-2.8-2c-0.7-0.6-1.2-1.3-1.5-2
		c-0.3-0.7-0.5-1.4-0.5-2.3c0-1.1,0.3-2,0.8-2.9s1.3-1.6,2.3-2.1s2.3-0.8,3.8-0.8c1,0,1.8,0.1,2.5,0.3c0.7,0.2,1.2,0.4,1.5,0.7
		c0.3,0.4,0.5,0.9,0.7,1.7c0.2,0.8,0.3,1.5,0.3,2.2c0,0.2-0.2,0.3-0.5,0.3c-0.2,0-0.4,0-0.6-0.1c-0.2-0.1-0.3-0.2-0.4-0.3
		c-0.4-1.1-1-1.9-1.6-2.5c-0.6-0.6-1.5-0.9-2.4-0.9c-0.8,0-1.6,0.3-2.2,0.8c-0.7,0.5-1,1.2-1,2.2c0,0.8,0.2,1.4,0.7,2
		c0.5,0.6,1.4,1.3,2.7,2c1.9,1.1,3.4,2.1,4.3,3.1s1.4,2.2,1.4,3.8c0,1.8-0.7,3.3-2,4.4C1597.7,652.1,1595.9,652.7,1593.8,652.7z"/>
	<path class="st0" d="M1609.9,652.7c-1,0-2-0.2-2.9-0.5c-0.9-0.3-1.7-0.8-2.3-1.3c-0.2-0.4-0.3-1-0.4-1.9c-0.1-0.9-0.1-1.6-0.2-2.1
		c0-0.3,0.2-0.5,0.6-0.5c0.1,0,0.3,0,0.4,0.1c0.1,0,0.2,0.1,0.2,0.3c0.4,1.6,1.1,2.8,2.1,3.5c0.9,0.7,1.9,1,2.9,1c1,0,1.8-0.3,2.5-1
		c0.7-0.7,1-1.5,1-2.4c0-0.9-0.3-1.7-0.9-2.3s-1.7-1.4-3.2-2.4c-1.1-0.7-2-1.4-2.8-2c-0.7-0.6-1.2-1.3-1.5-2
		c-0.3-0.7-0.5-1.4-0.5-2.3c0-1.1,0.3-2,0.8-2.9s1.3-1.6,2.3-2.1s2.3-0.8,3.8-0.8c1,0,1.8,0.1,2.5,0.3c0.7,0.2,1.2,0.4,1.5,0.7
		c0.3,0.4,0.5,0.9,0.7,1.7c0.2,0.8,0.3,1.5,0.3,2.2c0,0.2-0.2,0.3-0.5,0.3c-0.2,0-0.4,0-0.6-0.1c-0.2-0.1-0.3-0.2-0.4-0.3
		c-0.4-1.1-1-1.9-1.6-2.5c-0.6-0.6-1.5-0.9-2.4-0.9c-0.8,0-1.6,0.3-2.2,0.8c-0.7,0.5-1,1.2-1,2.2c0,0.8,0.2,1.4,0.7,2
		c0.5,0.6,1.4,1.3,2.7,2c1.9,1.1,3.4,2.1,4.3,3.1s1.4,2.2,1.4,3.8c0,1.8-0.7,3.3-2,4.4C1613.9,652.1,1612.1,652.7,1609.9,652.7z"/>
</g>
</svg>
